<mxfile host="app.diagrams.net" modified="2020-04-27T02:40:45.281Z" agent="5.0 (Macintosh; Intel Mac OS X 10_15_4) AppleWebKit/605.1.15 (KHTML, like Gecko) Version/13.1 Safari/605.1.15" etag="YnLgW3GiIezGt0CXrU4L" version="13.0.1" type="github" pages="8">
  <diagram id="n-LaUe6rCVLpThtM2G4v" name="main">
    <mxGraphModel dx="850" dy="595" grid="1" gridSize="10" guides="1" tooltips="1" connect="1" arrows="1" fold="1" page="1" pageScale="1" pageWidth="827" pageHeight="1169" math="0" shadow="0">
      <root>
        <mxCell id="0" />
        <mxCell id="1" parent="0" />
        <mxCell id="6K44VxC3NeTdze0Nqsje-1" value="&lt;font&gt;&lt;b&gt;&lt;font color=&quot;#000000&quot;&gt;&lt;span style=&quot;font-size: 72px&quot;&gt;காமத்துப்பால்&lt;/span&gt;&lt;br&gt;&lt;font style=&quot;font-size: 24px&quot;&gt;(25)&lt;/font&gt;&lt;/font&gt;&lt;br&gt;&lt;/b&gt;&lt;/font&gt;" style="ellipse;whiteSpace=wrap;html=1;shadow=0;fontFamily=Helvetica;fontSize=20;fontColor=#FFFFFF;align=center;strokeWidth=3;fillColor=#736ca8;strokeColor=none;" parent="1" vertex="1">
          <mxGeometry x="1730" y="920" width="460" height="320" as="geometry" />
        </mxCell>
        <mxCell id="6K44VxC3NeTdze0Nqsje-2" value="&lt;font&gt;&lt;b&gt;&lt;font color=&quot;#000000&quot;&gt;&lt;span style=&quot;font-size: 72px&quot;&gt;பொருட்பால்&lt;/span&gt;&lt;br&gt;&lt;font style=&quot;font-size: 24px&quot;&gt;(70)&lt;/font&gt;&lt;/font&gt;&lt;br&gt;&lt;/b&gt;&lt;/font&gt;" style="ellipse;whiteSpace=wrap;html=1;shadow=0;fontFamily=Helvetica;fontSize=20;fontColor=#FFFFFF;align=center;strokeWidth=3;fillColor=#F08705;strokeColor=none;" parent="1" vertex="1">
          <mxGeometry x="1148.5" y="920" width="492.5" height="320" as="geometry" />
        </mxCell>
        <mxCell id="6K44VxC3NeTdze0Nqsje-3" value="&lt;b&gt;&lt;font&gt;&lt;font color=&quot;#000000&quot;&gt;&lt;span style=&quot;font-size: 72px&quot;&gt;அறத்துப்பால்&lt;br&gt;&lt;/span&gt;&lt;font style=&quot;font-size: 24px&quot;&gt;(38)&lt;/font&gt;&lt;/font&gt;&lt;br&gt;&lt;/font&gt;&lt;/b&gt;" style="ellipse;whiteSpace=wrap;html=1;shadow=0;fontFamily=Helvetica;fontSize=20;fontColor=#FFFFFF;align=center;strokeWidth=3;fillColor=#E85642;strokeColor=none;" parent="1" vertex="1">
          <mxGeometry x="560" y="905" width="510" height="350" as="geometry" />
        </mxCell>
        <mxCell id="6K44VxC3NeTdze0Nqsje-4" style="endArrow=none;strokeWidth=6;strokeColor=#736ca8;html=1;" parent="1" source="6K44VxC3NeTdze0Nqsje-21" target="6K44VxC3NeTdze0Nqsje-1" edge="1">
          <mxGeometry relative="1" as="geometry" />
        </mxCell>
        <mxCell id="6K44VxC3NeTdze0Nqsje-5" value="" style="edgeStyle=none;endArrow=none;strokeWidth=6;strokeColor=#F08705;html=1;" parent="1" source="6K44VxC3NeTdze0Nqsje-21" target="6K44VxC3NeTdze0Nqsje-2" edge="1">
          <mxGeometry x="341" y="606.5" width="100" height="100" as="geometry">
            <mxPoint x="341" y="706.5" as="sourcePoint" />
            <mxPoint x="441" y="606.5" as="targetPoint" />
          </mxGeometry>
        </mxCell>
        <mxCell id="6K44VxC3NeTdze0Nqsje-6" value="" style="edgeStyle=none;endArrow=none;strokeWidth=6;strokeColor=#E85642;html=1;" parent="1" source="6K44VxC3NeTdze0Nqsje-21" target="6K44VxC3NeTdze0Nqsje-3" edge="1">
          <mxGeometry x="341" y="606.5" width="100" height="100" as="geometry">
            <mxPoint x="341" y="706.5" as="sourcePoint" />
            <mxPoint x="441" y="606.5" as="targetPoint" />
          </mxGeometry>
        </mxCell>
        <mxCell id="6K44VxC3NeTdze0Nqsje-7" value="&lt;font&gt;&lt;font color=&quot;#000000&quot;&gt;&lt;b&gt;&lt;span style=&quot;font-size: 48px&quot;&gt;கற்பியல்&lt;/span&gt;&lt;font style=&quot;font-size: 24px&quot;&gt;&lt;br&gt;(18)&lt;/font&gt;&lt;/b&gt;&lt;/font&gt;&lt;br&gt;&lt;/font&gt;" style="rounded=1;fillColor=#a29dc5;strokeColor=none;strokeWidth=3;shadow=0;html=1;fontColor=#FFFFFF;" parent="1" vertex="1">
          <mxGeometry x="2060" y="1590" width="250" height="143.5" as="geometry" />
        </mxCell>
        <mxCell id="6K44VxC3NeTdze0Nqsje-8" value="&lt;b&gt;&lt;font color=&quot;#000000&quot;&gt;&lt;span style=&quot;font-size: 48px&quot;&gt;களவியல்&lt;/span&gt;&lt;br&gt;&lt;font style=&quot;font-size: 24px&quot;&gt;(7)&lt;/font&gt;&lt;/font&gt;&lt;/b&gt;" style="rounded=1;fillColor=#a29dc5;strokeColor=none;strokeWidth=3;shadow=0;html=1;fontColor=#FFFFFF;" parent="1" vertex="1">
          <mxGeometry x="1730" y="1576.25" width="269" height="150" as="geometry" />
        </mxCell>
        <mxCell id="6K44VxC3NeTdze0Nqsje-9" value="" style="edgeStyle=none;endArrow=none;strokeWidth=3;strokeColor=#A29DC5;html=1;" parent="1" source="6K44VxC3NeTdze0Nqsje-1" target="6K44VxC3NeTdze0Nqsje-7" edge="1">
          <mxGeometry x="411" y="276.5" width="100" height="100" as="geometry">
            <mxPoint x="411" y="376.5" as="sourcePoint" />
            <mxPoint x="511" y="276.5" as="targetPoint" />
          </mxGeometry>
        </mxCell>
        <mxCell id="6K44VxC3NeTdze0Nqsje-10" value="" style="edgeStyle=none;endArrow=none;strokeWidth=3;strokeColor=#A29DC5;html=1;" parent="1" source="6K44VxC3NeTdze0Nqsje-1" target="6K44VxC3NeTdze0Nqsje-8" edge="1">
          <mxGeometry x="411" y="276.5" width="100" height="100" as="geometry">
            <mxPoint x="411" y="376.5" as="sourcePoint" />
            <mxPoint x="511" y="276.5" as="targetPoint" />
          </mxGeometry>
        </mxCell>
        <mxCell id="6K44VxC3NeTdze0Nqsje-11" value="&lt;b&gt;&lt;font color=&quot;#000000&quot;&gt;&lt;span style=&quot;font-size: 48px&quot;&gt;அங்கவியல்&lt;/span&gt;&lt;br&gt;&lt;font style=&quot;font-size: 24px&quot;&gt;(32)&lt;/font&gt;&lt;/font&gt;&lt;br&gt;&lt;/b&gt;" style="rounded=1;fillColor=#f5af58;strokeColor=none;strokeWidth=3;shadow=0;html=1;fontColor=#FFFFFF;" parent="1" vertex="1">
          <mxGeometry x="1310" y="1600" width="271" height="170" as="geometry" />
        </mxCell>
        <mxCell id="6K44VxC3NeTdze0Nqsje-12" value="&lt;font&gt;&lt;b&gt;&lt;font color=&quot;#000000&quot;&gt;&lt;span style=&quot;font-size: 48px&quot;&gt;அரசியல்&lt;/span&gt;&lt;br&gt;&lt;font style=&quot;font-size: 24px&quot;&gt;(25)&lt;/font&gt;&lt;/font&gt;&lt;br&gt;&lt;/b&gt;&lt;/font&gt;" style="rounded=1;fillColor=#f5af58;strokeColor=none;strokeWidth=3;shadow=0;html=1;fontColor=#FFFFFF;" parent="1" vertex="1">
          <mxGeometry x="1060" y="1416.25" width="240" height="173.75" as="geometry" />
        </mxCell>
        <mxCell id="6K44VxC3NeTdze0Nqsje-13" value="" style="edgeStyle=none;endArrow=none;strokeWidth=3;strokeColor=#F5AF58;html=1;" parent="1" source="6K44VxC3NeTdze0Nqsje-2" target="6K44VxC3NeTdze0Nqsje-11" edge="1">
          <mxGeometry x="300" y="278" width="100" height="100" as="geometry">
            <mxPoint x="300" y="378" as="sourcePoint" />
            <mxPoint x="400" y="278" as="targetPoint" />
          </mxGeometry>
        </mxCell>
        <mxCell id="6K44VxC3NeTdze0Nqsje-14" value="" style="edgeStyle=none;endArrow=none;strokeWidth=3;strokeColor=#F5AF58;html=1;" parent="1" source="6K44VxC3NeTdze0Nqsje-2" target="6K44VxC3NeTdze0Nqsje-12" edge="1">
          <mxGeometry x="300" y="278" width="100" height="100" as="geometry">
            <mxPoint x="300" y="378" as="sourcePoint" />
            <mxPoint x="400" y="278" as="targetPoint" />
          </mxGeometry>
        </mxCell>
        <mxCell id="6K44VxC3NeTdze0Nqsje-15" value="&lt;font&gt;&lt;b&gt;&lt;font color=&quot;#000000&quot;&gt;&lt;span style=&quot;font-size: 48px&quot;&gt;பாயிரவியல்&lt;/span&gt;&lt;br&gt;&lt;font style=&quot;font-size: 24px&quot;&gt;(4)&lt;/font&gt;&lt;/font&gt;&lt;br&gt;&lt;/b&gt;&lt;/font&gt;" style="rounded=1;fillColor=#f08e81;strokeColor=none;strokeWidth=3;shadow=0;html=1;fontColor=#FFFFFF;" parent="1" vertex="1">
          <mxGeometry x="260" y="1360" width="250" height="180" as="geometry" />
        </mxCell>
        <mxCell id="6K44VxC3NeTdze0Nqsje-16" value="&lt;font&gt;&lt;b&gt;&lt;font color=&quot;#000000&quot;&gt;&lt;span style=&quot;font-size: 48px&quot;&gt;இல்லறவியல்&lt;/span&gt;&lt;font style=&quot;font-size: 24px&quot;&gt;&lt;br&gt;(20)&lt;/font&gt;&lt;/font&gt;&lt;/b&gt;&lt;br&gt;&lt;/font&gt;" style="rounded=1;fillColor=#f08e81;strokeColor=none;strokeWidth=3;shadow=0;html=1;fontColor=#FFFFFF;" parent="1" vertex="1">
          <mxGeometry x="260" y="1610" width="300" height="160" as="geometry" />
        </mxCell>
        <mxCell id="6K44VxC3NeTdze0Nqsje-17" value="&lt;b&gt;&lt;font color=&quot;#000000&quot;&gt;&lt;span style=&quot;font-size: 48px&quot;&gt;துறவறவியல்&lt;/span&gt;&lt;br&gt;&lt;font style=&quot;font-size: 24px&quot;&gt;(13)&lt;/font&gt;&lt;/font&gt;&lt;br&gt;&lt;/b&gt;" style="rounded=1;fillColor=#f08e81;strokeColor=none;strokeWidth=3;shadow=0;html=1;fontColor=#FFFFFF;" parent="1" vertex="1">
          <mxGeometry x="600" y="1416.25" width="310" height="160" as="geometry" />
        </mxCell>
        <mxCell id="6K44VxC3NeTdze0Nqsje-18" value="" style="edgeStyle=none;endArrow=none;strokeWidth=3;strokeColor=#F08E81;html=1;" parent="1" source="6K44VxC3NeTdze0Nqsje-3" target="6K44VxC3NeTdze0Nqsje-15" edge="1">
          <mxGeometry x="80" y="245" width="100" height="100" as="geometry">
            <mxPoint x="80" y="345" as="sourcePoint" />
            <mxPoint x="180" y="245" as="targetPoint" />
          </mxGeometry>
        </mxCell>
        <mxCell id="6K44VxC3NeTdze0Nqsje-19" value="" style="edgeStyle=none;endArrow=none;strokeWidth=3;strokeColor=#F08E81;html=1;" parent="1" source="6K44VxC3NeTdze0Nqsje-3" target="6K44VxC3NeTdze0Nqsje-16" edge="1">
          <mxGeometry x="80" y="245" width="100" height="100" as="geometry">
            <mxPoint x="80" y="345" as="sourcePoint" />
            <mxPoint x="180" y="245" as="targetPoint" />
          </mxGeometry>
        </mxCell>
        <mxCell id="6K44VxC3NeTdze0Nqsje-20" value="" style="edgeStyle=none;endArrow=none;strokeWidth=3;strokeColor=#F08E81;html=1;" parent="1" source="6K44VxC3NeTdze0Nqsje-3" target="6K44VxC3NeTdze0Nqsje-17" edge="1">
          <mxGeometry x="80" y="245" width="100" height="100" as="geometry">
            <mxPoint x="80" y="345" as="sourcePoint" />
            <mxPoint x="180" y="245" as="targetPoint" />
          </mxGeometry>
        </mxCell>
        <mxCell id="6K44VxC3NeTdze0Nqsje-21" value="&lt;font&gt;&lt;font&gt;&lt;span style=&quot;font-size: 84px&quot;&gt;திருக்குறள்&lt;/span&gt;&lt;br&gt;&lt;font style=&quot;font-size: 36px&quot;&gt;(133)&lt;/font&gt;&lt;/font&gt;&lt;br&gt;&lt;/font&gt;" style="ellipse;whiteSpace=wrap;html=1;shadow=0;fontFamily=Helvetica;fontSize=30;fontColor=#2F5B7C;align=center;strokeColor=#2F5B7C;strokeWidth=6;fillColor=#FFFFFF;fontStyle=1;gradientColor=none;" parent="1" vertex="1">
          <mxGeometry x="1170" y="430" width="445" height="400" as="geometry" />
        </mxCell>
        <mxCell id="6K44VxC3NeTdze0Nqsje-22" value="&lt;b&gt;&lt;font color=&quot;#000000&quot;&gt;&lt;span style=&quot;font-size: 48px&quot;&gt;ஒழிபியல்&lt;/span&gt;&lt;br&gt;&lt;font style=&quot;font-size: 24px&quot;&gt;(13)&lt;/font&gt;&lt;/font&gt;&lt;br&gt;&lt;/b&gt;" style="rounded=1;fillColor=#f5af58;strokeColor=none;strokeWidth=3;shadow=0;html=1;fontColor=#FFFFFF;" parent="1" vertex="1">
          <mxGeometry x="1540" y="1393.5" width="271" height="160" as="geometry" />
        </mxCell>
        <mxCell id="6K44VxC3NeTdze0Nqsje-23" value="" style="edgeStyle=none;endArrow=none;strokeWidth=3;strokeColor=#F5AF58;html=1;exitX=0.731;exitY=0.944;exitDx=0;exitDy=0;exitPerimeter=0;" parent="1" source="6K44VxC3NeTdze0Nqsje-2" target="6K44VxC3NeTdze0Nqsje-22" edge="1">
          <mxGeometry x="599" y="288" width="100" height="100" as="geometry">
            <mxPoint x="1470.0769786860087" y="1249.1847456926407" as="sourcePoint" />
            <mxPoint x="699" y="288" as="targetPoint" />
          </mxGeometry>
        </mxCell>
        <mxCell id="6K44VxC3NeTdze0Nqsje-24" value="&lt;b&gt;&lt;font color=&quot;#000000&quot;&gt;&lt;span style=&quot;font-size: 48px&quot;&gt;ஊழியல்&lt;/span&gt;&lt;font style=&quot;font-size: 24px&quot;&gt;&lt;br&gt;(1)&lt;/font&gt;&lt;/font&gt;&lt;br&gt;&lt;/b&gt;" style="rounded=1;fillColor=#f08e81;strokeColor=none;strokeWidth=3;shadow=0;html=1;fontColor=#FFFFFF;" parent="1" vertex="1">
          <mxGeometry x="870" y="1620.9999999999998" width="310" height="160" as="geometry" />
        </mxCell>
        <mxCell id="6K44VxC3NeTdze0Nqsje-25" value="" style="edgeStyle=none;endArrow=none;strokeWidth=3;strokeColor=#F08E81;html=1;" parent="1" source="6K44VxC3NeTdze0Nqsje-3" target="6K44VxC3NeTdze0Nqsje-24" edge="1">
          <mxGeometry x="270" y="475.14" width="100" height="100" as="geometry">
            <mxPoint x="1005.0332083676617" y="1510.0044886935361" as="sourcePoint" />
            <mxPoint x="370" y="475.14" as="targetPoint" />
          </mxGeometry>
        </mxCell>
      </root>
    </mxGraphModel>
  </diagram>
  <diagram id="w4LnvTcq8FWGlpL3le8S" name="Section-1">
    <mxGraphModel dx="850" dy="595" grid="1" gridSize="10" guides="1" tooltips="1" connect="1" arrows="1" fold="1" page="1" pageScale="1" pageWidth="827" pageHeight="1169" math="0" shadow="0">
      <root>
        <mxCell id="9-J_UpoVJU4FEbAF4en5-0" />
        <mxCell id="9-J_UpoVJU4FEbAF4en5-1" parent="9-J_UpoVJU4FEbAF4en5-0" />
        <mxCell id="9-J_UpoVJU4FEbAF4en5-2" value="&lt;b&gt;&lt;font&gt;&lt;font color=&quot;#000000&quot;&gt;&lt;span style=&quot;font-size: 72px&quot;&gt;அறத்துப்பால்&lt;br&gt;&lt;/span&gt;&lt;font style=&quot;font-size: 24px&quot;&gt;(38)&lt;/font&gt;&lt;/font&gt;&lt;br&gt;&lt;/font&gt;&lt;/b&gt;" style="ellipse;whiteSpace=wrap;html=1;shadow=0;fontFamily=Helvetica;fontSize=20;fontColor=#FFFFFF;align=center;strokeWidth=3;fillColor=#E85642;strokeColor=none;" parent="9-J_UpoVJU4FEbAF4en5-1" vertex="1">
          <mxGeometry x="1050" y="20" width="510" height="350" as="geometry" />
        </mxCell>
        <mxCell id="9-J_UpoVJU4FEbAF4en5-3" value="&lt;font&gt;&lt;b&gt;&lt;font color=&quot;#000000&quot;&gt;&lt;span style=&quot;font-size: 48px&quot;&gt;பாயிரவியல்&lt;/span&gt;&lt;br&gt;&lt;font style=&quot;font-size: 24px&quot;&gt;(4)&lt;/font&gt;&lt;/font&gt;&lt;br&gt;&lt;/b&gt;&lt;/font&gt;" style="rounded=1;fillColor=#f08e81;strokeColor=none;strokeWidth=3;shadow=0;html=1;fontColor=#FFFFFF;" parent="9-J_UpoVJU4FEbAF4en5-1" vertex="1">
          <mxGeometry x="240" y="160" width="250" height="180" as="geometry" />
        </mxCell>
        <mxCell id="9-J_UpoVJU4FEbAF4en5-4" value="&lt;font&gt;&lt;b&gt;&lt;font color=&quot;#000000&quot;&gt;&lt;span style=&quot;font-size: 48px&quot;&gt;இல்லறவியல்&lt;/span&gt;&lt;font style=&quot;font-size: 24px&quot;&gt;&lt;br&gt;(20)&lt;/font&gt;&lt;/font&gt;&lt;/b&gt;&lt;br&gt;&lt;/font&gt;" style="rounded=1;fillColor=#f08e81;strokeColor=none;strokeWidth=3;shadow=0;html=1;fontColor=#FFFFFF;" parent="9-J_UpoVJU4FEbAF4en5-1" vertex="1">
          <mxGeometry x="760" y="350" width="300" height="160" as="geometry" />
        </mxCell>
        <mxCell id="9-J_UpoVJU4FEbAF4en5-5" value="&lt;b&gt;&lt;font color=&quot;#000000&quot;&gt;&lt;span style=&quot;font-size: 48px&quot;&gt;துறவறவியல்&lt;/span&gt;&lt;br&gt;&lt;font style=&quot;font-size: 24px&quot;&gt;(13)&lt;/font&gt;&lt;/font&gt;&lt;br&gt;&lt;/b&gt;" style="rounded=1;fillColor=#f08e81;strokeColor=none;strokeWidth=3;shadow=0;html=1;fontColor=#FFFFFF;" parent="9-J_UpoVJU4FEbAF4en5-1" vertex="1">
          <mxGeometry x="1620" y="360" width="310" height="160" as="geometry" />
        </mxCell>
        <mxCell id="9-J_UpoVJU4FEbAF4en5-6" value="" style="edgeStyle=none;endArrow=none;strokeWidth=3;strokeColor=#F08E81;html=1;" parent="9-J_UpoVJU4FEbAF4en5-1" source="9-J_UpoVJU4FEbAF4en5-2" target="9-J_UpoVJU4FEbAF4en5-3" edge="1">
          <mxGeometry x="-80" y="-135" width="100" height="100" as="geometry">
            <mxPoint x="-80" y="-35" as="sourcePoint" />
            <mxPoint x="20" y="-135" as="targetPoint" />
          </mxGeometry>
        </mxCell>
        <mxCell id="9-J_UpoVJU4FEbAF4en5-7" value="" style="edgeStyle=none;endArrow=none;strokeWidth=3;strokeColor=#F08E81;html=1;" parent="9-J_UpoVJU4FEbAF4en5-1" source="9-J_UpoVJU4FEbAF4en5-2" target="9-J_UpoVJU4FEbAF4en5-4" edge="1">
          <mxGeometry x="-80" y="-135" width="100" height="100" as="geometry">
            <mxPoint x="-80" y="-35" as="sourcePoint" />
            <mxPoint x="20" y="-135" as="targetPoint" />
          </mxGeometry>
        </mxCell>
        <mxCell id="9-J_UpoVJU4FEbAF4en5-8" value="" style="edgeStyle=none;endArrow=none;strokeWidth=3;strokeColor=#F08E81;html=1;" parent="9-J_UpoVJU4FEbAF4en5-1" source="9-J_UpoVJU4FEbAF4en5-2" target="9-J_UpoVJU4FEbAF4en5-5" edge="1">
          <mxGeometry x="-80" y="-135" width="100" height="100" as="geometry">
            <mxPoint x="-80" y="-35" as="sourcePoint" />
            <mxPoint x="20" y="-135" as="targetPoint" />
          </mxGeometry>
        </mxCell>
        <mxCell id="9-J_UpoVJU4FEbAF4en5-9" value="&lt;b&gt;&lt;font color=&quot;#000000&quot;&gt;&lt;span style=&quot;font-size: 48px&quot;&gt;ஊழியல்&lt;/span&gt;&lt;font style=&quot;font-size: 24px&quot;&gt;&lt;br&gt;(1)&lt;/font&gt;&lt;/font&gt;&lt;br&gt;&lt;/b&gt;" style="rounded=1;fillColor=#f08e81;strokeColor=none;strokeWidth=3;shadow=0;html=1;fontColor=#FFFFFF;" parent="9-J_UpoVJU4FEbAF4en5-1" vertex="1">
          <mxGeometry x="2020" y="149.99999999999977" width="310" height="160" as="geometry" />
        </mxCell>
        <mxCell id="9-J_UpoVJU4FEbAF4en5-10" value="" style="edgeStyle=none;endArrow=none;strokeWidth=3;strokeColor=#F08E81;html=1;" parent="9-J_UpoVJU4FEbAF4en5-1" source="9-J_UpoVJU4FEbAF4en5-2" target="9-J_UpoVJU4FEbAF4en5-9" edge="1">
          <mxGeometry x="110" y="95.13999999999999" width="100" height="100" as="geometry">
            <mxPoint x="845.0332083676617" y="1130.0044886935361" as="sourcePoint" />
            <mxPoint x="210" y="95.13999999999999" as="targetPoint" />
          </mxGeometry>
        </mxCell>
        <mxCell id="9-J_UpoVJU4FEbAF4en5-11" value="&lt;ol style=&quot;font-size: 30px&quot;&gt;&lt;ol&gt;&lt;li&gt;&lt;b style=&quot;font-family: &amp;#34;helvetica&amp;#34;&quot;&gt;&lt;font style=&quot;font-size: 30px&quot;&gt;இல்வாழ்க்கை&lt;/font&gt;&lt;/b&gt;&lt;/li&gt;&lt;li&gt;&lt;font face=&quot;helvetica&quot;&gt;&lt;b&gt;வாழ்க்கைதுணைநலம்&lt;/b&gt;&lt;/font&gt;&lt;/li&gt;&lt;li&gt;&lt;font face=&quot;helvetica&quot;&gt;&lt;b&gt;புதல்வரைப்பெறுதல்&lt;/b&gt;&lt;/font&gt;&lt;/li&gt;&lt;li&gt;&lt;font face=&quot;helvetica&quot;&gt;&lt;b&gt;அன்புடைமை&lt;/b&gt;&lt;/font&gt;&lt;/li&gt;&lt;li&gt;&lt;font face=&quot;helvetica&quot;&gt;&lt;b&gt;வருந்தோம்பல்&lt;/b&gt;&lt;/font&gt;&lt;/li&gt;&lt;li&gt;&lt;font face=&quot;helvetica&quot;&gt;&lt;b&gt;இனியவைகூறல்&lt;/b&gt;&lt;/font&gt;&lt;/li&gt;&lt;li&gt;&lt;font face=&quot;helvetica&quot;&gt;&lt;b&gt;செய்ந்நன்றி அறிதல்&lt;/b&gt;&lt;/font&gt;&lt;/li&gt;&lt;li&gt;&lt;font face=&quot;helvetica&quot;&gt;&lt;b&gt;நடுவு நிலைமை&lt;/b&gt;&lt;/font&gt;&lt;/li&gt;&lt;li&gt;&lt;font face=&quot;helvetica&quot;&gt;&lt;b&gt;அடக்கமுடைமை&lt;/b&gt;&lt;/font&gt;&lt;/li&gt;&lt;li&gt;&lt;font face=&quot;helvetica&quot;&gt;&lt;b&gt;ஒழக்கமுடைமை&lt;/b&gt;&lt;/font&gt;&lt;/li&gt;&lt;/ol&gt;&lt;/ol&gt;" style="rounded=1;fillColor=#f8cecc;strokeColor=#b85450;strokeWidth=3;shadow=0;html=1;align=left;" parent="9-J_UpoVJU4FEbAF4en5-1" vertex="1">
          <mxGeometry x="430" y="650" width="380" height="440" as="geometry" />
        </mxCell>
        <mxCell id="9-J_UpoVJU4FEbAF4en5-12" value="&lt;font face=&quot;helvetica&quot;&gt;&lt;span style=&quot;font-size: 30px&quot;&gt;&lt;b&gt;11. &amp;nbsp; பிறனில் விழையாமை&lt;br&gt;12. &amp;nbsp; பொறையுடைமை&lt;br&gt;13. &amp;nbsp; அழுக்காறாமை&lt;br&gt;14. &amp;nbsp; வெஃகாமை&lt;br&gt;15. &amp;nbsp; புறங்கூறாமை&lt;br&gt;16. &amp;nbsp; பயனில சொல்லாமை&lt;br&gt;17. &amp;nbsp; தீவினையச்சம்&lt;br&gt;18. &amp;nbsp; ஒப்புரவறிதல்&lt;br&gt;19. &amp;nbsp; ஈகை&lt;br&gt;20. &amp;nbsp; புகழ்&lt;br&gt;&lt;/b&gt;&lt;/span&gt;&lt;/font&gt;" style="rounded=1;fillColor=#f8cecc;strokeColor=#b85450;strokeWidth=3;shadow=0;html=1;align=left;" parent="9-J_UpoVJU4FEbAF4en5-1" vertex="1">
          <mxGeometry x="960" y="670" width="360" height="440" as="geometry" />
        </mxCell>
        <mxCell id="9-J_UpoVJU4FEbAF4en5-13" value="&lt;blockquote style=&quot;margin: 0px 0px 0px 40px ; border: none ; padding: 0px ; font-size: 30px&quot;&gt;&lt;ol&gt;&lt;li&gt;&lt;font face=&quot;helvetica&quot;&gt;&lt;b&gt;அருளுடைமை&lt;/b&gt;&lt;/font&gt;&lt;/li&gt;&lt;li&gt;&lt;font face=&quot;helvetica&quot;&gt;&lt;b&gt;புலான்மறுத்தல்&lt;/b&gt;&lt;/font&gt;&lt;/li&gt;&lt;li&gt;&lt;font face=&quot;helvetica&quot;&gt;&lt;b&gt;தவம்&lt;/b&gt;&lt;/font&gt;&lt;/li&gt;&lt;li&gt;&lt;font face=&quot;helvetica&quot;&gt;&lt;b&gt;கூடாவொழுக்கம்&lt;/b&gt;&lt;/font&gt;&lt;/li&gt;&lt;li&gt;&lt;font face=&quot;helvetica&quot;&gt;&lt;b&gt;கள்ளாமை&lt;/b&gt;&lt;/font&gt;&lt;/li&gt;&lt;li&gt;&lt;font face=&quot;helvetica&quot;&gt;&lt;b&gt;வாய்மை&lt;/b&gt;&lt;/font&gt;&lt;/li&gt;&lt;li&gt;&lt;font face=&quot;helvetica&quot;&gt;&lt;b&gt;வெகுளாமை&lt;/b&gt;&lt;/font&gt;&lt;/li&gt;&lt;/ol&gt;&lt;/blockquote&gt;" style="rounded=1;fillColor=#f8cecc;strokeColor=#b85450;strokeWidth=3;shadow=0;html=1;align=left;" parent="9-J_UpoVJU4FEbAF4en5-1" vertex="1">
          <mxGeometry x="1380" y="670" width="330" height="440" as="geometry" />
        </mxCell>
        <mxCell id="9-J_UpoVJU4FEbAF4en5-14" value="&lt;font face=&quot;helvetica&quot;&gt;&lt;span style=&quot;font-size: 30px&quot;&gt;&lt;b&gt;&amp;nbsp;8. &amp;nbsp;&amp;nbsp;&lt;/b&gt;&lt;/span&gt;&lt;/font&gt;&lt;b style=&quot;font-family: &amp;#34;helvetica&amp;#34; ; font-size: 30px&quot;&gt;இன்னாசெய்யாமை&lt;/b&gt;&lt;font face=&quot;helvetica&quot;&gt;&lt;span style=&quot;font-size: 30px&quot;&gt;&lt;b&gt;&lt;br&gt;&lt;/b&gt;&lt;/span&gt;&lt;/font&gt;&lt;font face=&quot;helvetica&quot;&gt;&lt;span style=&quot;font-size: 30px&quot;&gt;&lt;b&gt;&amp;nbsp;9. &amp;nbsp; கொல்லாமை&lt;br&gt;10. &amp;nbsp;நிலையாமை&lt;br&gt;11. &amp;nbsp;துறவு&lt;br&gt;12. &amp;nbsp;மெய்யுணர்தல்&lt;br&gt;13. &amp;nbsp;அவாவறுத்தல்&lt;br&gt;&lt;/b&gt;&lt;/span&gt;&lt;/font&gt;" style="rounded=1;fillColor=#f8cecc;strokeColor=#b85450;strokeWidth=3;shadow=0;html=1;align=left;" parent="9-J_UpoVJU4FEbAF4en5-1" vertex="1">
          <mxGeometry x="1850" y="680" width="320" height="440" as="geometry" />
        </mxCell>
        <mxCell id="9-J_UpoVJU4FEbAF4en5-15" value="&lt;ol style=&quot;font-size: 30px&quot;&gt;&lt;li&gt;&lt;font face=&quot;helvetica&quot;&gt;&lt;b&gt;கடவுள் வாழ்த்து&lt;/b&gt;&lt;/font&gt;&lt;/li&gt;&lt;li&gt;&lt;font face=&quot;helvetica&quot;&gt;&lt;b&gt;வான்சிறப்பு&lt;/b&gt;&lt;/font&gt;&lt;/li&gt;&lt;li&gt;&lt;font face=&quot;helvetica&quot;&gt;&lt;b&gt;நீத்தார் பெருமை&lt;/b&gt;&lt;/font&gt;&lt;/li&gt;&lt;li&gt;&lt;font face=&quot;helvetica&quot;&gt;&lt;b&gt;அறன் வலியுறுத்தல்&lt;/b&gt;&lt;/font&gt;&lt;/li&gt;&lt;/ol&gt;&lt;b style=&quot;font-family: &amp;#34;helvetica&amp;#34;&quot;&gt;&lt;font style=&quot;font-size: 36px&quot;&gt;&lt;br&gt;&lt;/font&gt;&lt;/b&gt;" style="rounded=1;fillColor=#f8cecc;strokeColor=#b85450;strokeWidth=3;shadow=0;html=1;align=left;" parent="9-J_UpoVJU4FEbAF4en5-1" vertex="1">
          <mxGeometry x="105" y="400" width="320" height="260" as="geometry" />
        </mxCell>
        <mxCell id="9-J_UpoVJU4FEbAF4en5-16" value="" style="endArrow=none;html=1;exitX=0.5;exitY=0;exitDx=0;exitDy=0;entryX=0.5;entryY=1;entryDx=0;entryDy=0;strokeColor=#F19C99;strokeWidth=4;" parent="9-J_UpoVJU4FEbAF4en5-1" source="9-J_UpoVJU4FEbAF4en5-11" target="9-J_UpoVJU4FEbAF4en5-4" edge="1">
          <mxGeometry width="50" height="50" relative="1" as="geometry">
            <mxPoint x="950" y="580" as="sourcePoint" />
            <mxPoint x="1000" y="530" as="targetPoint" />
          </mxGeometry>
        </mxCell>
        <mxCell id="9-J_UpoVJU4FEbAF4en5-17" value="" style="endArrow=none;html=1;entryX=0.5;entryY=1;entryDx=0;entryDy=0;exitX=0.5;exitY=0;exitDx=0;exitDy=0;strokeColor=#F19C99;strokeWidth=4;" parent="9-J_UpoVJU4FEbAF4en5-1" source="9-J_UpoVJU4FEbAF4en5-12" target="9-J_UpoVJU4FEbAF4en5-4" edge="1">
          <mxGeometry width="50" height="50" relative="1" as="geometry">
            <mxPoint x="1060" y="600" as="sourcePoint" />
            <mxPoint x="1000" y="530" as="targetPoint" />
          </mxGeometry>
        </mxCell>
        <mxCell id="9-J_UpoVJU4FEbAF4en5-18" value="" style="endArrow=none;html=1;strokeColor=#F19C99;strokeWidth=4;entryX=0.5;entryY=1;entryDx=0;entryDy=0;exitX=0.5;exitY=0;exitDx=0;exitDy=0;" parent="9-J_UpoVJU4FEbAF4en5-1" source="9-J_UpoVJU4FEbAF4en5-14" target="9-J_UpoVJU4FEbAF4en5-5" edge="1">
          <mxGeometry width="50" height="50" relative="1" as="geometry">
            <mxPoint x="1870" y="600" as="sourcePoint" />
            <mxPoint x="1640" y="540" as="targetPoint" />
          </mxGeometry>
        </mxCell>
        <mxCell id="9-J_UpoVJU4FEbAF4en5-19" value="" style="endArrow=none;html=1;exitX=0.5;exitY=0;exitDx=0;exitDy=0;entryX=0.5;entryY=1;entryDx=0;entryDy=0;strokeColor=#F19C99;strokeWidth=4;" parent="9-J_UpoVJU4FEbAF4en5-1" source="9-J_UpoVJU4FEbAF4en5-13" target="9-J_UpoVJU4FEbAF4en5-5" edge="1">
          <mxGeometry width="50" height="50" relative="1" as="geometry">
            <mxPoint x="950" y="580" as="sourcePoint" />
            <mxPoint x="1000" y="530" as="targetPoint" />
          </mxGeometry>
        </mxCell>
        <mxCell id="9-J_UpoVJU4FEbAF4en5-20" value="" style="endArrow=none;html=1;exitX=0.438;exitY=0;exitDx=0;exitDy=0;exitPerimeter=0;strokeColor=#F19C99;strokeWidth=4;" parent="9-J_UpoVJU4FEbAF4en5-1" source="9-J_UpoVJU4FEbAF4en5-22" edge="1">
          <mxGeometry width="50" height="50" relative="1" as="geometry">
            <mxPoint x="2130" y="350" as="sourcePoint" />
            <mxPoint x="2180" y="300" as="targetPoint" />
          </mxGeometry>
        </mxCell>
        <mxCell id="9-J_UpoVJU4FEbAF4en5-21" value="" style="endArrow=none;html=1;entryX=0.5;entryY=1;entryDx=0;entryDy=0;exitX=0.5;exitY=0;exitDx=0;exitDy=0;strokeColor=#F19C99;strokeWidth=4;" parent="9-J_UpoVJU4FEbAF4en5-1" source="9-J_UpoVJU4FEbAF4en5-15" target="9-J_UpoVJU4FEbAF4en5-3" edge="1">
          <mxGeometry width="50" height="50" relative="1" as="geometry">
            <mxPoint x="140" y="860" as="sourcePoint" />
            <mxPoint x="190" y="810" as="targetPoint" />
          </mxGeometry>
        </mxCell>
        <mxCell id="9-J_UpoVJU4FEbAF4en5-22" value="&lt;ol style=&quot;font-size: 30px&quot;&gt;&lt;ol&gt;&lt;li&gt;&lt;font face=&quot;helvetica&quot;&gt;&lt;b&gt;ஊழ்&lt;/b&gt;&lt;/font&gt;&lt;/li&gt;&lt;/ol&gt;&lt;/ol&gt;" style="rounded=1;fillColor=#f8cecc;strokeColor=#b85450;strokeWidth=3;shadow=0;html=1;align=left;" parent="9-J_UpoVJU4FEbAF4en5-1" vertex="1">
          <mxGeometry x="2080" y="360" width="320" height="210" as="geometry" />
        </mxCell>
      </root>
    </mxGraphModel>
  </diagram>
  <diagram id="jmYW2x1BqUC6hr07w5M4" name="Section-2">
    <mxGraphModel dx="23" dy="595" grid="1" gridSize="10" guides="1" tooltips="1" connect="1" arrows="1" fold="1" page="1" pageScale="1" pageWidth="827" pageHeight="1169" math="0" shadow="0">
      <root>
        <mxCell id="ZkZkZZShHTDPqrft31qj-0" />
        <mxCell id="ZkZkZZShHTDPqrft31qj-1" parent="ZkZkZZShHTDPqrft31qj-0" />
        <mxCell id="ZkZkZZShHTDPqrft31qj-2" value="&lt;font&gt;&lt;b&gt;&lt;font color=&quot;#000000&quot;&gt;&lt;span style=&quot;font-size: 72px&quot;&gt;பொருட்பால்&lt;/span&gt;&lt;br&gt;&lt;font style=&quot;font-size: 24px&quot;&gt;(70)&lt;/font&gt;&lt;/font&gt;&lt;br&gt;&lt;/b&gt;&lt;/font&gt;" style="ellipse;whiteSpace=wrap;html=1;shadow=0;fontFamily=Helvetica;fontSize=20;fontColor=#FFFFFF;align=center;strokeWidth=3;fillColor=#F08705;strokeColor=none;" parent="ZkZkZZShHTDPqrft31qj-1" vertex="1">
          <mxGeometry x="1460" y="50" width="492.5" height="320" as="geometry" />
        </mxCell>
        <mxCell id="ZkZkZZShHTDPqrft31qj-3" value="&lt;b&gt;&lt;font color=&quot;#000000&quot;&gt;&lt;span style=&quot;font-size: 48px&quot;&gt;அங்கவியல்&lt;/span&gt;&lt;br&gt;&lt;font style=&quot;font-size: 24px&quot;&gt;(32)&lt;/font&gt;&lt;/font&gt;&lt;br&gt;&lt;/b&gt;" style="rounded=1;fillColor=#f5af58;strokeColor=none;strokeWidth=3;shadow=0;html=1;fontColor=#FFFFFF;" parent="ZkZkZZShHTDPqrft31qj-1" vertex="1">
          <mxGeometry x="1600" y="400" width="271" height="170" as="geometry" />
        </mxCell>
        <mxCell id="ZkZkZZShHTDPqrft31qj-4" value="&lt;font&gt;&lt;b&gt;&lt;font color=&quot;#000000&quot;&gt;&lt;span style=&quot;font-size: 48px&quot;&gt;அரசியல்&lt;/span&gt;&lt;br&gt;&lt;font style=&quot;font-size: 24px&quot;&gt;(25)&lt;/font&gt;&lt;/font&gt;&lt;br&gt;&lt;/b&gt;&lt;/font&gt;" style="rounded=1;fillColor=#f5af58;strokeColor=none;strokeWidth=3;shadow=0;html=1;fontColor=#FFFFFF;" parent="ZkZkZZShHTDPqrft31qj-1" vertex="1">
          <mxGeometry x="1010" y="123.13" width="240" height="173.75" as="geometry" />
        </mxCell>
        <mxCell id="ZkZkZZShHTDPqrft31qj-5" value="" style="edgeStyle=none;endArrow=none;strokeWidth=3;strokeColor=#F5AF58;html=1;" parent="ZkZkZZShHTDPqrft31qj-1" source="ZkZkZZShHTDPqrft31qj-2" target="ZkZkZZShHTDPqrft31qj-3" edge="1">
          <mxGeometry x="140" y="-102" width="100" height="100" as="geometry">
            <mxPoint x="140" y="-2" as="sourcePoint" />
            <mxPoint x="240" y="-102" as="targetPoint" />
          </mxGeometry>
        </mxCell>
        <mxCell id="ZkZkZZShHTDPqrft31qj-6" value="" style="edgeStyle=none;endArrow=none;strokeWidth=3;strokeColor=#F5AF58;html=1;" parent="ZkZkZZShHTDPqrft31qj-1" source="ZkZkZZShHTDPqrft31qj-2" target="ZkZkZZShHTDPqrft31qj-4" edge="1">
          <mxGeometry x="140" y="-102" width="100" height="100" as="geometry">
            <mxPoint x="140" y="-2" as="sourcePoint" />
            <mxPoint x="240" y="-102" as="targetPoint" />
          </mxGeometry>
        </mxCell>
        <mxCell id="ZkZkZZShHTDPqrft31qj-7" value="&lt;b&gt;&lt;font color=&quot;#000000&quot;&gt;&lt;span style=&quot;font-size: 48px&quot;&gt;ஒழிபியல்&lt;/span&gt;&lt;br&gt;&lt;font style=&quot;font-size: 24px&quot;&gt;(13)&lt;/font&gt;&lt;/font&gt;&lt;br&gt;&lt;/b&gt;" style="rounded=1;fillColor=#f5af58;strokeColor=none;strokeWidth=3;shadow=0;html=1;fontColor=#FFFFFF;" parent="ZkZkZZShHTDPqrft31qj-1" vertex="1">
          <mxGeometry x="2150" y="130" width="271" height="160" as="geometry" />
        </mxCell>
        <mxCell id="ZkZkZZShHTDPqrft31qj-8" value="" style="edgeStyle=none;endArrow=none;strokeWidth=3;strokeColor=#F5AF58;html=1;exitX=1;exitY=0.5;exitDx=0;exitDy=0;" parent="ZkZkZZShHTDPqrft31qj-1" source="ZkZkZZShHTDPqrft31qj-2" target="ZkZkZZShHTDPqrft31qj-7" edge="1">
          <mxGeometry x="439" y="-92" width="100" height="100" as="geometry">
            <mxPoint x="1840" y="780" as="sourcePoint" />
            <mxPoint x="539" y="-92" as="targetPoint" />
          </mxGeometry>
        </mxCell>
        <mxCell id="ZkZkZZShHTDPqrft31qj-10" value="&lt;b style=&quot;font-family: &amp;#34;helvetica&amp;#34;&quot;&gt;&lt;font style=&quot;font-size: 24px&quot;&gt;9. &amp;nbsp; அவையறிதல்&lt;/font&gt;&lt;/b&gt;&lt;b style=&quot;font-family: &amp;#34;helvetica&amp;#34;&quot;&gt;&lt;br&gt;&lt;/b&gt;&lt;b style=&quot;font-family: &amp;#34;helvetica&amp;#34;&quot;&gt;&lt;font style=&quot;font-size: 24px&quot;&gt;10. அவையஞ்சாமை&lt;/font&gt;&lt;/b&gt;&lt;b style=&quot;font-family: &amp;#34;helvetica&amp;#34;&quot;&gt;&lt;br&gt;&lt;/b&gt;&lt;b style=&quot;font-family: &amp;#34;helvetica&amp;#34;&quot;&gt;&lt;font style=&quot;font-size: 24px&quot;&gt;11. &amp;nbsp;நாடு&lt;/font&gt;&lt;/b&gt;&lt;b style=&quot;font-family: &amp;#34;helvetica&amp;#34;&quot;&gt;&lt;br&gt;&lt;/b&gt;&lt;b style=&quot;font-family: &amp;#34;helvetica&amp;#34;&quot;&gt;&lt;font style=&quot;font-size: 24px&quot;&gt;12. &amp;nbsp;அரண்&lt;/font&gt;&lt;/b&gt;&lt;b style=&quot;font-family: &amp;#34;helvetica&amp;#34;&quot;&gt;&lt;br&gt;&lt;/b&gt;&lt;b style=&quot;font-family: &amp;#34;helvetica&amp;#34;&quot;&gt;&lt;font style=&quot;font-size: 24px&quot;&gt;13. &amp;nbsp;பொருள் செயல்வகை&lt;br&gt;&lt;/font&gt;&lt;/b&gt;&lt;b style=&quot;font-family: &amp;#34;helvetica&amp;#34;&quot;&gt;&lt;font style=&quot;font-size: 24px&quot;&gt;14. &amp;nbsp;படைமாட்சி&lt;br&gt;&lt;/font&gt;&lt;/b&gt;&lt;b style=&quot;font-family: &amp;#34;helvetica&amp;#34;&quot;&gt;&lt;font style=&quot;font-size: 24px&quot;&gt;15. &amp;nbsp;&lt;/font&gt;&lt;/b&gt;&lt;b style=&quot;font-family: &amp;#34;helvetica&amp;#34;&quot;&gt;&lt;font style=&quot;font-size: 24px&quot;&gt;படைச்செருக்கு&lt;/font&gt;&lt;/b&gt;&lt;b style=&quot;font-family: &amp;#34;helvetica&amp;#34;&quot;&gt;&lt;br&gt;&lt;div&gt;&lt;b&gt;&lt;font style=&quot;font-size: 24px&quot;&gt;16. &amp;nbsp;நட்பு&lt;/font&gt;&lt;/b&gt;&lt;/div&gt;&lt;/b&gt;" style="rounded=1;fillColor=#fff2cc;strokeColor=#d6b656;strokeWidth=3;shadow=0;html=1;align=left;" parent="ZkZkZZShHTDPqrft31qj-1" vertex="1">
          <mxGeometry x="1540" y="740" width="271" height="370" as="geometry" />
        </mxCell>
        <mxCell id="ZkZkZZShHTDPqrft31qj-11" value="&lt;b style=&quot;font-family: &amp;#34;helvetica&amp;#34;&quot;&gt;&lt;font style=&quot;font-size: 24px&quot;&gt;17. &amp;nbsp;நட்புஆராய்தல்&lt;/font&gt;&lt;/b&gt;&lt;b style=&quot;font-family: &amp;#34;helvetica&amp;#34;&quot;&gt;&lt;br&gt;&lt;/b&gt;&lt;b style=&quot;font-family: &amp;#34;helvetica&amp;#34;&quot;&gt;&lt;font style=&quot;font-size: 24px&quot;&gt;18. பழைமை&lt;/font&gt;&lt;/b&gt;&lt;b style=&quot;font-family: &amp;#34;helvetica&amp;#34;&quot;&gt;&lt;br&gt;&lt;/b&gt;&lt;b style=&quot;font-family: &amp;#34;helvetica&amp;#34;&quot;&gt;&lt;font style=&quot;font-size: 24px&quot;&gt;19. &amp;nbsp;தீ நட்பு&lt;/font&gt;&lt;/b&gt;&lt;b style=&quot;font-family: &amp;#34;helvetica&amp;#34;&quot;&gt;&lt;br&gt;&lt;/b&gt;&lt;b style=&quot;font-family: &amp;#34;helvetica&amp;#34;&quot;&gt;&lt;font style=&quot;font-size: 24px&quot;&gt;20. &amp;nbsp;கூடாநட்பு&lt;/font&gt;&lt;/b&gt;&lt;b style=&quot;font-family: &amp;#34;helvetica&amp;#34;&quot;&gt;&lt;br&gt;&lt;/b&gt;&lt;b style=&quot;font-family: &amp;#34;helvetica&amp;#34;&quot;&gt;&lt;font style=&quot;font-size: 24px&quot;&gt;21. &amp;nbsp;பேதைமை&lt;br&gt;&lt;/font&gt;&lt;/b&gt;&lt;b style=&quot;font-family: &amp;#34;helvetica&amp;#34;&quot;&gt;&lt;font style=&quot;font-size: 24px&quot;&gt;22. &amp;nbsp;புல்லறிவாண்மை&lt;br&gt;&lt;/font&gt;&lt;/b&gt;&lt;b style=&quot;font-family: &amp;#34;helvetica&amp;#34;&quot;&gt;&lt;font style=&quot;font-size: 24px&quot;&gt;23. &amp;nbsp;இகல்&lt;/font&gt;&lt;/b&gt;&lt;b style=&quot;font-family: &amp;#34;helvetica&amp;#34;&quot;&gt;&lt;br&gt;&lt;div&gt;&lt;b&gt;&lt;font style=&quot;font-size: 24px&quot;&gt;24. &amp;nbsp;பகைமாட்சி&lt;/font&gt;&lt;/b&gt;&lt;/div&gt;&lt;/b&gt;" style="rounded=1;fillColor=#fff2cc;strokeColor=#d6b656;strokeWidth=3;shadow=0;html=1;align=left;" parent="ZkZkZZShHTDPqrft31qj-1" vertex="1">
          <mxGeometry x="1830" y="740" width="271" height="370" as="geometry" />
        </mxCell>
        <mxCell id="ZkZkZZShHTDPqrft31qj-12" value="&lt;span style=&quot;font-family: &amp;#34;helvetica&amp;#34;&quot;&gt;&lt;b&gt;&lt;font style=&quot;font-size: 24px&quot;&gt;1. இறைமாட்சி&lt;br&gt;2. கல்வி&lt;br&gt;3. கல்லாமை&lt;br&gt;4. கேள்வி&lt;br&gt;5. அறிவுடைமை&lt;br&gt;6. குற்றங்கடிதல்&lt;br&gt;7. பெரியாரைத்து&lt;br&gt;&amp;nbsp; &amp;nbsp; &amp;nbsp; ணைக்கோடல்&lt;br&gt;8. சிற்றினஞ் சேராமை&lt;br&gt;9. தெரிந்துசெயல்வகை&lt;br&gt;10. வலியறிதல்&lt;br&gt;11. காலமறிதல்&lt;br&gt;12. இடன்றிதல்&lt;br&gt;13. தெரிந்துதெளிதல்&lt;br&gt;14. தெரிந்துவிளையாடல்&lt;br&gt;15. சுற்றந்தழால்&amp;nbsp;&lt;br&gt;16. பொச்சாவாமை&lt;br&gt;17. செங்கோன்மை&lt;br&gt;18. கொடுங்கோன்மை&lt;br&gt;19. வெருவந்தசெய்யாமை&lt;br&gt;20. கண்ணோட்டம்&lt;br&gt;&lt;/font&gt;&lt;/b&gt;&lt;/span&gt;" style="rounded=1;fillColor=#fff2cc;strokeColor=#d6b656;strokeWidth=3;shadow=0;html=1;align=left;" parent="ZkZkZZShHTDPqrft31qj-1" vertex="1">
          <mxGeometry x="890" y="380" width="271" height="630" as="geometry" />
        </mxCell>
        <mxCell id="ZkZkZZShHTDPqrft31qj-14" value="&lt;b style=&quot;font-family: &amp;#34;helvetica&amp;#34;&quot;&gt;&lt;font style=&quot;font-size: 24px&quot;&gt;9. உழவு&lt;br&gt;10. நல்குரவு&lt;br&gt;11. இரவு&lt;br&gt;12. இரவச்சம்&lt;br&gt;13. கயமை&lt;br&gt;&lt;/font&gt;&lt;/b&gt;" style="rounded=1;fillColor=#fff2cc;strokeColor=#d6b656;strokeWidth=3;shadow=0;html=1;align=left;" parent="ZkZkZZShHTDPqrft31qj-1" vertex="1">
          <mxGeometry x="2220" y="450" width="230" height="220" as="geometry" />
        </mxCell>
        <mxCell id="ZkZkZZShHTDPqrft31qj-16" value="" style="endArrow=none;html=1;strokeColor=#d6b656;strokeWidth=4;exitX=0.5;exitY=0;exitDx=0;exitDy=0;fillColor=#fff2cc;" parent="ZkZkZZShHTDPqrft31qj-1" source="ZkZkZZShHTDPqrft31qj-12" edge="1">
          <mxGeometry width="50" height="50" relative="1" as="geometry">
            <mxPoint x="1580" y="590" as="sourcePoint" />
            <mxPoint x="1140" y="290" as="targetPoint" />
          </mxGeometry>
        </mxCell>
        <mxCell id="ZkZkZZShHTDPqrft31qj-17" value="" style="endArrow=none;html=1;strokeColor=#F19C99;strokeWidth=4;entryX=0.25;entryY=1;entryDx=0;entryDy=0;exitX=0.5;exitY=0;exitDx=0;exitDy=0;" parent="ZkZkZZShHTDPqrft31qj-1" source="ALSMttlalGZf7D3XHWA9-0" target="ZkZkZZShHTDPqrft31qj-3" edge="1">
          <mxGeometry width="50" height="50" relative="1" as="geometry">
            <mxPoint x="1450" y="630" as="sourcePoint" />
            <mxPoint x="1510" y="580" as="targetPoint" />
          </mxGeometry>
        </mxCell>
        <mxCell id="ZkZkZZShHTDPqrft31qj-19" value="" style="endArrow=none;html=1;strokeColor=#F19C99;strokeWidth=4;exitX=0.435;exitY=-0.005;exitDx=0;exitDy=0;exitPerimeter=0;entryX=0.5;entryY=1;entryDx=0;entryDy=0;" parent="ZkZkZZShHTDPqrft31qj-1" source="ZkZkZZShHTDPqrft31qj-10" target="ZkZkZZShHTDPqrft31qj-3" edge="1">
          <mxGeometry width="50" height="50" relative="1" as="geometry">
            <mxPoint x="1580" y="590" as="sourcePoint" />
            <mxPoint x="1630" y="540" as="targetPoint" />
          </mxGeometry>
        </mxCell>
        <mxCell id="ZkZkZZShHTDPqrft31qj-20" value="" style="endArrow=none;html=1;strokeColor=#F19C99;strokeWidth=4;exitX=0.5;exitY=0;exitDx=0;exitDy=0;entryX=0.5;entryY=1;entryDx=0;entryDy=0;" parent="ZkZkZZShHTDPqrft31qj-1" source="ZkZkZZShHTDPqrft31qj-11" target="ZkZkZZShHTDPqrft31qj-3" edge="1">
          <mxGeometry width="50" height="50" relative="1" as="geometry">
            <mxPoint x="1580" y="590" as="sourcePoint" />
            <mxPoint x="1800" y="580" as="targetPoint" />
          </mxGeometry>
        </mxCell>
        <mxCell id="ZkZkZZShHTDPqrft31qj-21" value="" style="endArrow=none;html=1;strokeColor=#F19C99;strokeWidth=4;entryX=0.25;entryY=1;entryDx=0;entryDy=0;exitX=0.5;exitY=0;exitDx=0;exitDy=0;" parent="ZkZkZZShHTDPqrft31qj-1" source="GFrcuCmNFJP3PFTTmDcX-2" target="ZkZkZZShHTDPqrft31qj-7" edge="1">
          <mxGeometry width="50" height="50" relative="1" as="geometry">
            <mxPoint x="2090" y="320" as="sourcePoint" />
            <mxPoint x="2140" y="270" as="targetPoint" />
          </mxGeometry>
        </mxCell>
        <mxCell id="GFrcuCmNFJP3PFTTmDcX-0" value="&lt;span style=&quot;font-family: &amp;#34;helvetica&amp;#34;&quot;&gt;&lt;b&gt;&lt;font style=&quot;font-size: 24px&quot;&gt;21. ஒற்றாடல்&lt;br&gt;22. ஊக்கமுடைமை&lt;br&gt;23. மடியின்மை&amp;nbsp;&lt;br&gt;24. ஆள்விளையுடமை&lt;br&gt;25. இடுக்கண் அழியாமை&lt;br&gt;&lt;/font&gt;&lt;/b&gt;&lt;/span&gt;" style="rounded=1;fillColor=#fff2cc;strokeColor=#d6b656;strokeWidth=3;shadow=0;html=1;align=left;" parent="ZkZkZZShHTDPqrft31qj-1" vertex="1">
          <mxGeometry x="1180" y="450" width="271" height="240" as="geometry" />
        </mxCell>
        <mxCell id="GFrcuCmNFJP3PFTTmDcX-1" value="" style="endArrow=none;html=1;strokeColor=#d6b656;strokeWidth=4;exitX=0.5;exitY=0;exitDx=0;exitDy=0;fillColor=#fff2cc;entryX=0.5;entryY=1;entryDx=0;entryDy=0;" parent="ZkZkZZShHTDPqrft31qj-1" source="GFrcuCmNFJP3PFTTmDcX-0" target="ZkZkZZShHTDPqrft31qj-4" edge="1">
          <mxGeometry width="50" height="50" relative="1" as="geometry">
            <mxPoint x="1045.5" y="380" as="sourcePoint" />
            <mxPoint x="1240" y="290" as="targetPoint" />
          </mxGeometry>
        </mxCell>
        <mxCell id="ALSMttlalGZf7D3XHWA9-0" value="&lt;blockquote style=&quot;margin: 0 0 0 40px ; border: none ; padding: 0px&quot;&gt;&lt;/blockquote&gt;&lt;b&gt;&lt;span style=&quot;font-family: &amp;#34;helvetica&amp;#34;&quot;&gt;&lt;font style=&quot;font-size: 24px&quot;&gt;1. அமைச்சு&lt;/font&gt;&lt;/span&gt;&lt;span style=&quot;font-family: &amp;#34;helvetica&amp;#34;&quot;&gt;&lt;br&gt;&lt;/span&gt;&lt;span style=&quot;font-family: &amp;#34;helvetica&amp;#34;&quot;&gt;&lt;font style=&quot;font-size: 24px&quot;&gt;2. சொல்வன்மை&lt;/font&gt;&lt;/span&gt;&lt;span style=&quot;font-family: &amp;#34;helvetica&amp;#34;&quot;&gt;&lt;br&gt;&lt;/span&gt;&lt;span style=&quot;font-family: &amp;#34;helvetica&amp;#34;&quot;&gt;&lt;font style=&quot;font-size: 24px&quot;&gt;3. வினைத்தூய்மை&lt;/font&gt;&lt;/span&gt;&lt;span style=&quot;font-family: &amp;#34;helvetica&amp;#34;&quot;&gt;&lt;br&gt;&lt;/span&gt;&lt;span style=&quot;font-family: &amp;#34;helvetica&amp;#34;&quot;&gt;&lt;font style=&quot;font-size: 24px&quot;&gt;4. வினைத்திட்பம்&lt;/font&gt;&lt;/span&gt;&lt;span style=&quot;font-family: &amp;#34;helvetica&amp;#34;&quot;&gt;&lt;br&gt;&lt;/span&gt;&lt;span style=&quot;font-family: &amp;#34;helvetica&amp;#34;&quot;&gt;&lt;font style=&quot;font-size: 24px&quot;&gt;5. வினைசெயல்வகை&lt;/font&gt;&lt;/span&gt;&lt;span style=&quot;font-family: &amp;#34;helvetica&amp;#34;&quot;&gt;&lt;br&gt;&lt;/span&gt;&lt;span style=&quot;font-family: &amp;#34;helvetica&amp;#34;&quot;&gt;&lt;font style=&quot;font-size: 24px&quot;&gt;6. தூது&lt;/font&gt;&lt;/span&gt;&lt;span style=&quot;font-family: &amp;#34;helvetica&amp;#34;&quot;&gt;&lt;br&gt;&lt;/span&gt;&lt;span style=&quot;font-family: &amp;#34;helvetica&amp;#34;&quot;&gt;&lt;font style=&quot;font-size: 24px&quot;&gt;7. மன்னரைச்சேர்ந்தொழுதல்&lt;/font&gt;&lt;/span&gt;&lt;span style=&quot;font-family: &amp;#34;helvetica&amp;#34;&quot;&gt;&lt;br&gt;&lt;/span&gt;&lt;span style=&quot;font-family: &amp;#34;helvetica&amp;#34;&quot;&gt;&lt;font style=&quot;font-size: 24px&quot;&gt;8. குறிப்பறிதல்&lt;/font&gt;&lt;/span&gt;&lt;/b&gt;&lt;b style=&quot;font-family: &amp;#34;helvetica&amp;#34;&quot;&gt;&lt;br&gt;&lt;/b&gt;&lt;blockquote style=&quot;margin: 0 0 0 40px ; border: none ; padding: 0px&quot;&gt;&lt;/blockquote&gt;&lt;blockquote style=&quot;margin: 0 0 0 40px ; border: none ; padding: 0px&quot;&gt;&lt;/blockquote&gt;&lt;blockquote style=&quot;margin: 0 0 0 40px ; border: none ; padding: 0px&quot;&gt;&lt;/blockquote&gt;&lt;blockquote style=&quot;margin: 0 0 0 40px ; border: none ; padding: 0px&quot;&gt;&lt;/blockquote&gt;&lt;blockquote style=&quot;margin: 0 0 0 40px ; border: none ; padding: 0px&quot;&gt;&lt;/blockquote&gt;&lt;blockquote style=&quot;margin: 0 0 0 40px ; border: none ; padding: 0px&quot;&gt;&lt;/blockquote&gt;" style="rounded=1;fillColor=#fff2cc;strokeColor=#d6b656;strokeWidth=3;shadow=0;html=1;align=left;" parent="ZkZkZZShHTDPqrft31qj-1" vertex="1">
          <mxGeometry x="1210" y="740" width="310" height="380" as="geometry" />
        </mxCell>
        <mxCell id="GFrcuCmNFJP3PFTTmDcX-2" value="&lt;span style=&quot;font-family: &amp;#34;helvetica&amp;#34;&quot;&gt;&lt;b&gt;&lt;font style=&quot;font-size: 24px&quot;&gt;&lt;br&gt;1. குடிமை&lt;br&gt;2. மானம்&lt;br&gt;3. பெருமை&lt;br&gt;4. சான்றாண்மை&lt;br&gt;5. பண்பு உடைமை&lt;br&gt;6. நன்றியில் செல்வம்&lt;br&gt;7. நாணுடைமை&lt;br&gt;8. குடிசெயல் வகை&lt;br&gt;&lt;br&gt;&lt;/font&gt;&lt;/b&gt;&lt;/span&gt;" style="rounded=1;fillColor=#fff2cc;strokeColor=#d6b656;strokeWidth=3;shadow=0;html=1;align=left;" parent="ZkZkZZShHTDPqrft31qj-1" vertex="1">
          <mxGeometry x="1932" y="330" width="271" height="290" as="geometry" />
        </mxCell>
        <mxCell id="ALSMttlalGZf7D3XHWA9-3" value="&lt;b style=&quot;font-family: &amp;#34;helvetica&amp;#34;&quot;&gt;&lt;font style=&quot;font-size: 24px&quot;&gt;25. பகைத்திறம் தெரிதல்&lt;/font&gt;&lt;/b&gt;&lt;b style=&quot;font-family: &amp;#34;helvetica&amp;#34;&quot;&gt;&lt;br&gt;&lt;/b&gt;&lt;b style=&quot;font-family: &amp;#34;helvetica&amp;#34;&quot;&gt;&lt;font style=&quot;font-size: 24px&quot;&gt;26. உட்பகை&lt;br&gt;&lt;/font&gt;&lt;/b&gt;&lt;b style=&quot;font-family: &amp;#34;helvetica&amp;#34;&quot;&gt;&lt;font style=&quot;font-size: 24px&quot;&gt;27. பெரியாரைப்பிழையாமை&lt;br&gt;&lt;/font&gt;&lt;/b&gt;&lt;b style=&quot;font-family: &amp;#34;helvetica&amp;#34;&quot;&gt;&lt;font style=&quot;font-size: 24px&quot;&gt;28. &amp;nbsp;பெண்வழிச்சேறள்&lt;/font&gt;&lt;/b&gt;&lt;b style=&quot;font-family: &amp;#34;helvetica&amp;#34;&quot;&gt;&lt;br&gt;&lt;/b&gt;&lt;b style=&quot;font-family: &amp;#34;helvetica&amp;#34;&quot;&gt;&lt;font style=&quot;font-size: 24px&quot;&gt;29. &amp;nbsp;விரைவின் மகளிர்&lt;br&gt;&lt;/font&gt;&lt;/b&gt;&lt;b style=&quot;font-family: &amp;#34;helvetica&amp;#34;&quot;&gt;&lt;font style=&quot;font-size: 24px&quot;&gt;30. &amp;nbsp;களுண்ணாமை&lt;br&gt;&lt;/font&gt;&lt;/b&gt;&lt;b style=&quot;font-family: &amp;#34;helvetica&amp;#34;&quot;&gt;&lt;font style=&quot;font-size: 24px&quot;&gt;31. &amp;nbsp;சூது&lt;/font&gt;&lt;/b&gt;&lt;b style=&quot;font-family: &amp;#34;helvetica&amp;#34;&quot;&gt;&lt;br&gt;&lt;div&gt;&lt;b&gt;&lt;font style=&quot;font-size: 24px&quot;&gt;32. &amp;nbsp;மருந்து&lt;/font&gt;&lt;/b&gt;&lt;/div&gt;&lt;/b&gt;" style="rounded=1;fillColor=#fff2cc;strokeColor=#d6b656;strokeWidth=3;shadow=0;html=1;align=left;" parent="ZkZkZZShHTDPqrft31qj-1" vertex="1">
          <mxGeometry x="2120" y="740" width="310" height="370" as="geometry" />
        </mxCell>
        <mxCell id="ALSMttlalGZf7D3XHWA9-5" value="" style="endArrow=none;html=1;strokeColor=#F19C99;strokeWidth=4;entryX=0.5;entryY=1;entryDx=0;entryDy=0;exitX=0.5;exitY=0;exitDx=0;exitDy=0;" parent="ZkZkZZShHTDPqrft31qj-1" source="ZkZkZZShHTDPqrft31qj-14" target="ZkZkZZShHTDPqrft31qj-7" edge="1">
          <mxGeometry width="50" height="50" relative="1" as="geometry">
            <mxPoint x="2098" y="320" as="sourcePoint" />
            <mxPoint x="2227.75" y="300" as="targetPoint" />
          </mxGeometry>
        </mxCell>
        <mxCell id="ALSMttlalGZf7D3XHWA9-6" value="" style="endArrow=none;html=1;strokeColor=#F19C99;strokeWidth=4;exitX=0.5;exitY=0;exitDx=0;exitDy=0;entryX=0.75;entryY=1;entryDx=0;entryDy=0;" parent="ZkZkZZShHTDPqrft31qj-1" source="ALSMttlalGZf7D3XHWA9-3" target="ZkZkZZShHTDPqrft31qj-3" edge="1">
          <mxGeometry width="50" height="50" relative="1" as="geometry">
            <mxPoint x="1965.5" y="640" as="sourcePoint" />
            <mxPoint x="1850" y="570" as="targetPoint" />
          </mxGeometry>
        </mxCell>
      </root>
    </mxGraphModel>
  </diagram>
  <diagram id="BeEMi7UEdOwVsipqz_5n" name="section-3">
    <mxGraphModel dx="2573" dy="2380" grid="1" gridSize="10" guides="1" tooltips="1" connect="1" arrows="1" fold="1" page="1" pageScale="1" pageWidth="827" pageHeight="1169" math="0" shadow="0">
      <root>
        <mxCell id="r4n_ZiYoHCvkG_xvcXrJ-0" />
        <mxCell id="r4n_ZiYoHCvkG_xvcXrJ-1" parent="r4n_ZiYoHCvkG_xvcXrJ-0" />
        <mxCell id="r4n_ZiYoHCvkG_xvcXrJ-5" value="&lt;font&gt;&lt;b&gt;&lt;font color=&quot;#000000&quot;&gt;&lt;span style=&quot;font-size: 72px&quot;&gt;காமத்துப்பால்&lt;/span&gt;&lt;br&gt;&lt;font style=&quot;font-size: 24px&quot;&gt;(25)&lt;/font&gt;&lt;/font&gt;&lt;br&gt;&lt;/b&gt;&lt;/font&gt;" style="ellipse;whiteSpace=wrap;html=1;shadow=0;fontFamily=Helvetica;fontSize=20;fontColor=#FFFFFF;align=center;strokeWidth=3;fillColor=#736ca8;strokeColor=none;" parent="r4n_ZiYoHCvkG_xvcXrJ-1" vertex="1">
          <mxGeometry x="1390" y="20" width="460" height="320" as="geometry" />
        </mxCell>
        <mxCell id="r4n_ZiYoHCvkG_xvcXrJ-6" value="&lt;font&gt;&lt;font color=&quot;#000000&quot;&gt;&lt;b&gt;&lt;span style=&quot;font-size: 48px&quot;&gt;கற்பியல்&lt;/span&gt;&lt;font style=&quot;font-size: 24px&quot;&gt;&lt;br&gt;(18)&lt;/font&gt;&lt;/b&gt;&lt;/font&gt;&lt;br&gt;&lt;/font&gt;" style="rounded=1;fillColor=#a29dc5;strokeColor=none;strokeWidth=3;shadow=0;html=1;fontColor=#FFFFFF;" parent="r4n_ZiYoHCvkG_xvcXrJ-1" vertex="1">
          <mxGeometry x="1900" y="386.5" width="250" height="143.5" as="geometry" />
        </mxCell>
        <mxCell id="r4n_ZiYoHCvkG_xvcXrJ-7" value="&lt;b&gt;&lt;font color=&quot;#000000&quot;&gt;&lt;span style=&quot;font-size: 48px&quot;&gt;களவியல்&lt;/span&gt;&lt;br&gt;&lt;font style=&quot;font-size: 24px&quot;&gt;(7)&lt;/font&gt;&lt;/font&gt;&lt;/b&gt;" style="rounded=1;fillColor=#a29dc5;strokeColor=none;strokeWidth=3;shadow=0;html=1;fontColor=#FFFFFF;" parent="r4n_ZiYoHCvkG_xvcXrJ-1" vertex="1">
          <mxGeometry x="1071" y="380" width="269" height="150" as="geometry" />
        </mxCell>
        <mxCell id="r4n_ZiYoHCvkG_xvcXrJ-8" value="" style="edgeStyle=none;endArrow=none;strokeWidth=6;strokeColor=#A29DC5;html=1;" parent="r4n_ZiYoHCvkG_xvcXrJ-1" source="r4n_ZiYoHCvkG_xvcXrJ-5" target="r4n_ZiYoHCvkG_xvcXrJ-6" edge="1">
          <mxGeometry x="91" y="-473.5" width="100" height="100" as="geometry">
            <mxPoint x="91" y="-373.5" as="sourcePoint" />
            <mxPoint x="191" y="-473.5" as="targetPoint" />
          </mxGeometry>
        </mxCell>
        <mxCell id="r4n_ZiYoHCvkG_xvcXrJ-9" value="" style="edgeStyle=none;endArrow=none;strokeWidth=3;strokeColor=#A29DC5;html=1;" parent="r4n_ZiYoHCvkG_xvcXrJ-1" source="r4n_ZiYoHCvkG_xvcXrJ-5" target="r4n_ZiYoHCvkG_xvcXrJ-7" edge="1">
          <mxGeometry x="91" y="-473.5" width="100" height="100" as="geometry">
            <mxPoint x="91" y="-373.5" as="sourcePoint" />
            <mxPoint x="191" y="-473.5" as="targetPoint" />
          </mxGeometry>
        </mxCell>
        <mxCell id="r4n_ZiYoHCvkG_xvcXrJ-10" value="&lt;b style=&quot;font-style: normal ; letter-spacing: normal ; text-indent: 0px ; text-transform: none ; word-spacing: 0px ; text-decoration: none ; font-family: &amp;#34;helvetica&amp;#34;&quot;&gt;&lt;font&gt;&lt;font style=&quot;font-size: 36px&quot;&gt;&amp;nbsp;1. &amp;nbsp;தகையணங்குறுத்தல்&lt;br&gt;&amp;nbsp;2. &amp;nbsp;குறிப்பறிதல்&lt;br&gt;&amp;nbsp;3. &amp;nbsp;புணர்ச்சி மகிழ்தல்&lt;br&gt;&amp;nbsp;4. &amp;nbsp;நலம்புளைந்துரைத்தல்&lt;br&gt;&amp;nbsp;5. &amp;nbsp;காதற்சிறப்புரைத்தல்&lt;br&gt;&amp;nbsp;6. &amp;nbsp;நாணுத்துறவுரைத்தல்&lt;br&gt;&amp;nbsp;7. &amp;nbsp;அலரறிவுறுத்தல்&lt;br&gt;&lt;/font&gt;&lt;br&gt;&lt;br&gt;&lt;/font&gt;&lt;/b&gt;" style="rounded=1;fillColor=#dae8fc;strokeColor=#6c8ebf;strokeWidth=3;shadow=0;html=1;align=left;" parent="r4n_ZiYoHCvkG_xvcXrJ-1" vertex="1">
          <mxGeometry x="910" y="620" width="450" height="510" as="geometry" />
        </mxCell>
        <mxCell id="r4n_ZiYoHCvkG_xvcXrJ-11" value="&lt;b style=&quot;font-family: &amp;#34;helvetica&amp;#34;&quot;&gt;&lt;font&gt;&lt;font style=&quot;font-size: 36px&quot;&gt;&amp;nbsp;10. &amp;nbsp;நெஞ்சொடுகிளத்தல்&lt;br&gt;&amp;nbsp;11. &amp;nbsp; நிறையழிதல்&lt;br&gt;&amp;nbsp;12. &amp;nbsp;அவர்வயின்விதும்பல்&lt;br&gt;&amp;nbsp;13. &amp;nbsp;குறிப்பறிவுறுத்தல்&lt;br&gt;&amp;nbsp;14. &amp;nbsp;புணர்ச்சி விதும்கல்&lt;br&gt;&amp;nbsp;15. &amp;nbsp;நெஞ்சொடுபுலத்தல்&lt;br&gt;&amp;nbsp;16. &amp;nbsp;புலவி&lt;br&gt;&amp;nbsp;17. &amp;nbsp;புலவி நுணுக்கம்&lt;br&gt;&amp;nbsp;18. &amp;nbsp;ஊடலுவகை&lt;/font&gt;&lt;br&gt;&lt;/font&gt;&lt;/b&gt;" style="rounded=1;fillColor=#dae8fc;strokeColor=#6c8ebf;strokeWidth=3;shadow=0;html=1;align=left;" parent="r4n_ZiYoHCvkG_xvcXrJ-1" vertex="1">
          <mxGeometry x="1970" y="630" width="450" height="495" as="geometry" />
        </mxCell>
        <mxCell id="r4n_ZiYoHCvkG_xvcXrJ-12" value="&lt;b style=&quot;font-family: &amp;#34;helvetica&amp;#34;&quot;&gt;&lt;font&gt;&lt;font style=&quot;font-size: 36px&quot;&gt;&amp;nbsp;1. &amp;nbsp;பிரிவாற்றாமை&lt;br&gt;&amp;nbsp;2. &amp;nbsp;படர்மெலிந்திரங்கல்&lt;br&gt;&amp;nbsp;3. &amp;nbsp;கண்விதுப்பழிதல்&lt;br&gt;&amp;nbsp;4. &amp;nbsp;பசப்பறுபருவரல்&lt;br&gt;&amp;nbsp;5. &amp;nbsp;தனிப்படர் மிகுதி&lt;br&gt;&amp;nbsp;6. &amp;nbsp;நினைந்தவர் புலம்பல்&lt;br&gt;&amp;nbsp;7. &amp;nbsp;கனவு நிலையுரைத்தல்&lt;br&gt;&amp;nbsp;8. &amp;nbsp;பொழுது கண்டிரங்கல்&lt;br&gt;&amp;nbsp;9. &amp;nbsp;உறுப்புநலனழிதல்&lt;/font&gt;&lt;br&gt;&lt;/font&gt;&lt;/b&gt;" style="rounded=1;fillColor=#dae8fc;strokeColor=#6c8ebf;strokeWidth=3;shadow=0;html=1;align=left;" parent="r4n_ZiYoHCvkG_xvcXrJ-1" vertex="1">
          <mxGeometry x="1440" y="630" width="490" height="495" as="geometry" />
        </mxCell>
        <mxCell id="r4n_ZiYoHCvkG_xvcXrJ-13" value="" style="endArrow=none;html=1;strokeColor=#F19C99;strokeWidth=4;entryX=0.5;entryY=1;entryDx=0;entryDy=0;exitX=0.75;exitY=0;exitDx=0;exitDy=0;" parent="r4n_ZiYoHCvkG_xvcXrJ-1" source="r4n_ZiYoHCvkG_xvcXrJ-12" target="r4n_ZiYoHCvkG_xvcXrJ-6" edge="1">
          <mxGeometry width="50" height="50" relative="1" as="geometry">
            <mxPoint x="1740" y="680" as="sourcePoint" />
            <mxPoint x="1790" y="630" as="targetPoint" />
          </mxGeometry>
        </mxCell>
        <mxCell id="r4n_ZiYoHCvkG_xvcXrJ-14" value="" style="endArrow=none;html=1;strokeColor=#F19C99;strokeWidth=4;entryX=0.5;entryY=1;entryDx=0;entryDy=0;exitX=0.536;exitY=0;exitDx=0;exitDy=0;exitPerimeter=0;" parent="r4n_ZiYoHCvkG_xvcXrJ-1" source="r4n_ZiYoHCvkG_xvcXrJ-10" target="r4n_ZiYoHCvkG_xvcXrJ-7" edge="1">
          <mxGeometry width="50" height="50" relative="1" as="geometry">
            <mxPoint x="1190" y="580" as="sourcePoint" />
            <mxPoint x="1240" y="530" as="targetPoint" />
          </mxGeometry>
        </mxCell>
        <mxCell id="r4n_ZiYoHCvkG_xvcXrJ-15" value="" style="endArrow=none;html=1;strokeColor=#F19C99;strokeWidth=4;entryX=0.5;entryY=1;entryDx=0;entryDy=0;exitX=0.545;exitY=0;exitDx=0;exitDy=0;exitPerimeter=0;" parent="r4n_ZiYoHCvkG_xvcXrJ-1" source="r4n_ZiYoHCvkG_xvcXrJ-11" target="r4n_ZiYoHCvkG_xvcXrJ-6" edge="1">
          <mxGeometry width="50" height="50" relative="1" as="geometry">
            <mxPoint x="1740" y="680" as="sourcePoint" />
            <mxPoint x="1790" y="630" as="targetPoint" />
          </mxGeometry>
        </mxCell>
      </root>
    </mxGraphModel>
  </diagram>
  <diagram id="qHwDzKtnSW8hEq9Iw_rj" name="main-english">
    <mxGraphModel dx="3400" dy="2380" grid="1" gridSize="10" guides="1" tooltips="1" connect="1" arrows="1" fold="1" page="1" pageScale="1" pageWidth="827" pageHeight="1169" math="0" shadow="0">
      <root>
        <mxCell id="TRByGXP3KHhF0FCyBhN1-0" />
        <mxCell id="TRByGXP3KHhF0FCyBhN1-1" parent="TRByGXP3KHhF0FCyBhN1-0" />
        <mxCell id="jT7_ShN87hqY10pcGhG_-0" value="&lt;font&gt;&lt;b&gt;&lt;font color=&quot;#000000&quot;&gt;&lt;span style=&quot;font-size: 72px&quot;&gt;Love&lt;/span&gt;&lt;br&gt;&lt;font style=&quot;font-size: 24px&quot;&gt;(25)&lt;/font&gt;&lt;/font&gt;&lt;br&gt;&lt;/b&gt;&lt;/font&gt;" style="ellipse;whiteSpace=wrap;html=1;shadow=0;fontFamily=Helvetica;fontSize=20;fontColor=#FFFFFF;align=center;strokeWidth=3;fillColor=#736ca8;strokeColor=none;" parent="TRByGXP3KHhF0FCyBhN1-1" vertex="1">
          <mxGeometry x="1740" y="930" width="460" height="320" as="geometry" />
        </mxCell>
        <mxCell id="jT7_ShN87hqY10pcGhG_-1" value="&lt;font&gt;&lt;b&gt;&lt;font color=&quot;#000000&quot;&gt;&lt;span style=&quot;font-size: 72px&quot;&gt;Material World&lt;/span&gt;&lt;br&gt;&lt;font style=&quot;font-size: 24px&quot;&gt;(70)&lt;/font&gt;&lt;/font&gt;&lt;br&gt;&lt;/b&gt;&lt;/font&gt;" style="ellipse;whiteSpace=wrap;html=1;shadow=0;fontFamily=Helvetica;fontSize=20;fontColor=#FFFFFF;align=center;strokeWidth=3;fillColor=#F08705;strokeColor=none;" parent="TRByGXP3KHhF0FCyBhN1-1" vertex="1">
          <mxGeometry x="1158.5" y="930" width="492.5" height="320" as="geometry" />
        </mxCell>
        <mxCell id="jT7_ShN87hqY10pcGhG_-2" value="&lt;b&gt;&lt;font&gt;&lt;font color=&quot;#000000&quot;&gt;&lt;span style=&quot;font-size: 72px&quot;&gt;Righteousness&lt;/span&gt;&lt;br&gt;&lt;font style=&quot;font-size: 24px&quot;&gt;(38)&lt;/font&gt;&lt;/font&gt;&lt;br&gt;&lt;/font&gt;&lt;/b&gt;" style="ellipse;whiteSpace=wrap;html=1;shadow=0;fontFamily=Helvetica;fontSize=20;fontColor=#FFFFFF;align=center;strokeWidth=3;fillColor=#E85642;strokeColor=none;" parent="TRByGXP3KHhF0FCyBhN1-1" vertex="1">
          <mxGeometry x="510" y="915" width="570" height="350" as="geometry" />
        </mxCell>
        <mxCell id="jT7_ShN87hqY10pcGhG_-3" style="endArrow=none;strokeWidth=6;strokeColor=#736ca8;html=1;" parent="TRByGXP3KHhF0FCyBhN1-1" source="jT7_ShN87hqY10pcGhG_-20" target="jT7_ShN87hqY10pcGhG_-0" edge="1">
          <mxGeometry relative="1" as="geometry" />
        </mxCell>
        <mxCell id="jT7_ShN87hqY10pcGhG_-4" value="" style="edgeStyle=none;endArrow=none;strokeWidth=6;strokeColor=#F08705;html=1;" parent="TRByGXP3KHhF0FCyBhN1-1" source="jT7_ShN87hqY10pcGhG_-20" target="jT7_ShN87hqY10pcGhG_-1" edge="1">
          <mxGeometry x="351" y="616.5" width="100" height="100" as="geometry">
            <mxPoint x="351" y="716.5" as="sourcePoint" />
            <mxPoint x="451" y="616.5" as="targetPoint" />
          </mxGeometry>
        </mxCell>
        <mxCell id="jT7_ShN87hqY10pcGhG_-5" value="" style="edgeStyle=none;endArrow=none;strokeWidth=6;strokeColor=#E85642;html=1;" parent="TRByGXP3KHhF0FCyBhN1-1" source="jT7_ShN87hqY10pcGhG_-20" target="jT7_ShN87hqY10pcGhG_-2" edge="1">
          <mxGeometry x="351" y="616.5" width="100" height="100" as="geometry">
            <mxPoint x="351" y="716.5" as="sourcePoint" />
            <mxPoint x="451" y="616.5" as="targetPoint" />
          </mxGeometry>
        </mxCell>
        <mxCell id="jT7_ShN87hqY10pcGhG_-6" value="&lt;font&gt;&lt;font color=&quot;#000000&quot;&gt;&lt;b&gt;&lt;font size=&quot;7&quot;&gt;Wedded Love&lt;br&gt;&lt;/font&gt;&lt;font style=&quot;font-size: 24px&quot;&gt;(18)&lt;/font&gt;&lt;/b&gt;&lt;/font&gt;&lt;br&gt;&lt;/font&gt;" style="rounded=1;fillColor=#a29dc5;strokeColor=none;strokeWidth=3;shadow=0;html=1;fontColor=#FFFFFF;" parent="TRByGXP3KHhF0FCyBhN1-1" vertex="1">
          <mxGeometry x="1970" y="1466.5" width="400" height="153.5" as="geometry" />
        </mxCell>
        <mxCell id="jT7_ShN87hqY10pcGhG_-7" value="&lt;b&gt;&lt;font color=&quot;#000000&quot;&gt;&lt;font size=&quot;7&quot;&gt;Concealed Love&lt;/font&gt;&lt;br&gt;&lt;font style=&quot;font-size: 24px&quot;&gt;(7)&lt;/font&gt;&lt;/font&gt;&lt;/b&gt;" style="rounded=1;fillColor=#a29dc5;strokeColor=none;strokeWidth=3;shadow=0;html=1;fontColor=#FFFFFF;" parent="TRByGXP3KHhF0FCyBhN1-1" vertex="1">
          <mxGeometry x="1670" y="1630" width="430" height="173.75" as="geometry" />
        </mxCell>
        <mxCell id="jT7_ShN87hqY10pcGhG_-8" value="" style="edgeStyle=none;endArrow=none;strokeWidth=3;strokeColor=#A29DC5;html=1;" parent="TRByGXP3KHhF0FCyBhN1-1" source="jT7_ShN87hqY10pcGhG_-0" target="jT7_ShN87hqY10pcGhG_-6" edge="1">
          <mxGeometry x="421" y="286.5" width="100" height="100" as="geometry">
            <mxPoint x="421" y="386.5" as="sourcePoint" />
            <mxPoint x="521" y="286.5" as="targetPoint" />
          </mxGeometry>
        </mxCell>
        <mxCell id="jT7_ShN87hqY10pcGhG_-9" value="" style="edgeStyle=none;endArrow=none;strokeWidth=3;strokeColor=#A29DC5;html=1;" parent="TRByGXP3KHhF0FCyBhN1-1" source="jT7_ShN87hqY10pcGhG_-0" target="jT7_ShN87hqY10pcGhG_-7" edge="1">
          <mxGeometry x="421" y="286.5" width="100" height="100" as="geometry">
            <mxPoint x="421" y="386.5" as="sourcePoint" />
            <mxPoint x="521" y="286.5" as="targetPoint" />
          </mxGeometry>
        </mxCell>
        <mxCell id="jT7_ShN87hqY10pcGhG_-10" value="&lt;b&gt;&lt;font color=&quot;#000000&quot;&gt;&lt;span style=&quot;font-size: 48px&quot;&gt;Public affairs&lt;/span&gt;&lt;br&gt;&lt;font style=&quot;font-size: 24px&quot;&gt;(32)&lt;/font&gt;&lt;/font&gt;&lt;br&gt;&lt;/b&gt;" style="rounded=1;fillColor=#f5af58;strokeColor=none;strokeWidth=3;shadow=0;html=1;fontColor=#FFFFFF;" parent="TRByGXP3KHhF0FCyBhN1-1" vertex="1">
          <mxGeometry x="1230" y="1630" width="400" height="180" as="geometry" />
        </mxCell>
        <mxCell id="jT7_ShN87hqY10pcGhG_-11" value="&lt;font&gt;&lt;b&gt;&lt;font color=&quot;#000000&quot;&gt;&lt;span style=&quot;font-size: 48px&quot;&gt;Royalty&lt;/span&gt;&lt;br&gt;&lt;font style=&quot;font-size: 24px&quot;&gt;(25)&lt;/font&gt;&lt;/font&gt;&lt;br&gt;&lt;/b&gt;&lt;/font&gt;" style="rounded=1;fillColor=#f5af58;strokeColor=none;strokeWidth=3;shadow=0;html=1;fontColor=#FFFFFF;" parent="TRByGXP3KHhF0FCyBhN1-1" vertex="1">
          <mxGeometry x="1070" y="1426.25" width="240" height="173.75" as="geometry" />
        </mxCell>
        <mxCell id="jT7_ShN87hqY10pcGhG_-12" value="" style="edgeStyle=none;endArrow=none;strokeWidth=3;strokeColor=#F5AF58;html=1;" parent="TRByGXP3KHhF0FCyBhN1-1" source="jT7_ShN87hqY10pcGhG_-1" target="jT7_ShN87hqY10pcGhG_-10" edge="1">
          <mxGeometry x="310" y="288" width="100" height="100" as="geometry">
            <mxPoint x="310" y="388" as="sourcePoint" />
            <mxPoint x="410" y="288" as="targetPoint" />
          </mxGeometry>
        </mxCell>
        <mxCell id="jT7_ShN87hqY10pcGhG_-13" value="" style="edgeStyle=none;endArrow=none;strokeWidth=3;strokeColor=#F5AF58;html=1;" parent="TRByGXP3KHhF0FCyBhN1-1" source="jT7_ShN87hqY10pcGhG_-1" target="jT7_ShN87hqY10pcGhG_-11" edge="1">
          <mxGeometry x="310" y="288" width="100" height="100" as="geometry">
            <mxPoint x="310" y="388" as="sourcePoint" />
            <mxPoint x="410" y="288" as="targetPoint" />
          </mxGeometry>
        </mxCell>
        <mxCell id="jT7_ShN87hqY10pcGhG_-14" value="&lt;font&gt;&lt;b&gt;&lt;font color=&quot;#000000&quot;&gt;&lt;span style=&quot;font-size: 48px&quot;&gt;Introduction&lt;/span&gt;&lt;br&gt;&lt;font style=&quot;font-size: 24px&quot;&gt;(4)&lt;/font&gt;&lt;/font&gt;&lt;br&gt;&lt;/b&gt;&lt;/font&gt;" style="rounded=1;fillColor=#f08e81;strokeColor=none;strokeWidth=3;shadow=0;html=1;fontColor=#FFFFFF;" parent="TRByGXP3KHhF0FCyBhN1-1" vertex="1">
          <mxGeometry x="125" y="1290" width="330" height="220" as="geometry" />
        </mxCell>
        <mxCell id="jT7_ShN87hqY10pcGhG_-15" value="&lt;font&gt;&lt;b&gt;&lt;font color=&quot;#000000&quot;&gt;&lt;span style=&quot;font-size: 48px&quot;&gt;Domestic Virtue&lt;/span&gt;&lt;font style=&quot;font-size: 24px&quot;&gt;&lt;br&gt;(20)&lt;/font&gt;&lt;/font&gt;&lt;/b&gt;&lt;br&gt;&lt;/font&gt;" style="rounded=1;fillColor=#f08e81;strokeColor=none;strokeWidth=3;shadow=0;html=1;fontColor=#FFFFFF;" parent="TRByGXP3KHhF0FCyBhN1-1" vertex="1">
          <mxGeometry x="90" y="1650" width="400" height="200" as="geometry" />
        </mxCell>
        <mxCell id="jT7_ShN87hqY10pcGhG_-16" value="&lt;b&gt;&lt;font color=&quot;#000000&quot;&gt;&lt;span style=&quot;font-size: 48px&quot;&gt;Ascetic Virtue&lt;/span&gt;&lt;br&gt;&lt;font style=&quot;font-size: 24px&quot;&gt;(13)&lt;/font&gt;&lt;/font&gt;&lt;br&gt;&lt;/b&gt;" style="rounded=1;fillColor=#f08e81;strokeColor=none;strokeWidth=3;shadow=0;html=1;fontColor=#FFFFFF;" parent="TRByGXP3KHhF0FCyBhN1-1" vertex="1">
          <mxGeometry x="540" y="1500" width="360" height="193.75" as="geometry" />
        </mxCell>
        <mxCell id="jT7_ShN87hqY10pcGhG_-17" value="" style="edgeStyle=none;endArrow=none;strokeWidth=3;strokeColor=#F08E81;html=1;" parent="TRByGXP3KHhF0FCyBhN1-1" source="jT7_ShN87hqY10pcGhG_-2" target="jT7_ShN87hqY10pcGhG_-14" edge="1">
          <mxGeometry x="90" y="255" width="100" height="100" as="geometry">
            <mxPoint x="90" y="355" as="sourcePoint" />
            <mxPoint x="190" y="255" as="targetPoint" />
          </mxGeometry>
        </mxCell>
        <mxCell id="jT7_ShN87hqY10pcGhG_-18" value="" style="edgeStyle=none;endArrow=none;strokeWidth=3;strokeColor=#F08E81;html=1;" parent="TRByGXP3KHhF0FCyBhN1-1" source="jT7_ShN87hqY10pcGhG_-2" target="jT7_ShN87hqY10pcGhG_-15" edge="1">
          <mxGeometry x="90" y="255" width="100" height="100" as="geometry">
            <mxPoint x="90" y="355" as="sourcePoint" />
            <mxPoint x="190" y="255" as="targetPoint" />
          </mxGeometry>
        </mxCell>
        <mxCell id="jT7_ShN87hqY10pcGhG_-19" value="" style="edgeStyle=none;endArrow=none;strokeWidth=3;strokeColor=#F08E81;html=1;" parent="TRByGXP3KHhF0FCyBhN1-1" source="jT7_ShN87hqY10pcGhG_-2" target="jT7_ShN87hqY10pcGhG_-16" edge="1">
          <mxGeometry x="90" y="255" width="100" height="100" as="geometry">
            <mxPoint x="90" y="355" as="sourcePoint" />
            <mxPoint x="190" y="255" as="targetPoint" />
          </mxGeometry>
        </mxCell>
        <mxCell id="jT7_ShN87hqY10pcGhG_-20" value="&lt;font&gt;&lt;font&gt;&lt;span style=&quot;font-size: 84px&quot;&gt;Thirukural&lt;/span&gt;&lt;br&gt;&lt;font style=&quot;font-size: 36px&quot;&gt;(133)&lt;/font&gt;&lt;/font&gt;&lt;br&gt;&lt;/font&gt;" style="ellipse;whiteSpace=wrap;html=1;shadow=0;fontFamily=Helvetica;fontSize=30;fontColor=#2F5B7C;align=center;strokeColor=#2F5B7C;strokeWidth=6;fillColor=#FFFFFF;fontStyle=1;gradientColor=none;" parent="TRByGXP3KHhF0FCyBhN1-1" vertex="1">
          <mxGeometry x="1180" y="440" width="445" height="400" as="geometry" />
        </mxCell>
        <mxCell id="jT7_ShN87hqY10pcGhG_-21" value="&lt;b&gt;&lt;font color=&quot;#000000&quot;&gt;&lt;span style=&quot;font-size: 48px&quot;&gt;Social Life&lt;/span&gt;&lt;br&gt;&lt;font style=&quot;font-size: 24px&quot;&gt;(13)&lt;/font&gt;&lt;/font&gt;&lt;br&gt;&lt;/b&gt;" style="rounded=1;fillColor=#f5af58;strokeColor=none;strokeWidth=3;shadow=0;html=1;fontColor=#FFFFFF;" parent="TRByGXP3KHhF0FCyBhN1-1" vertex="1">
          <mxGeometry x="1550" y="1403.5" width="271" height="160" as="geometry" />
        </mxCell>
        <mxCell id="jT7_ShN87hqY10pcGhG_-22" value="" style="edgeStyle=none;endArrow=none;strokeWidth=3;strokeColor=#F5AF58;html=1;exitX=0.731;exitY=0.944;exitDx=0;exitDy=0;exitPerimeter=0;" parent="TRByGXP3KHhF0FCyBhN1-1" source="jT7_ShN87hqY10pcGhG_-1" target="jT7_ShN87hqY10pcGhG_-21" edge="1">
          <mxGeometry x="609" y="298" width="100" height="100" as="geometry">
            <mxPoint x="1480.0769786860087" y="1259.1847456926407" as="sourcePoint" />
            <mxPoint x="709" y="298" as="targetPoint" />
          </mxGeometry>
        </mxCell>
        <mxCell id="jT7_ShN87hqY10pcGhG_-23" value="&lt;b&gt;&lt;font color=&quot;#000000&quot;&gt;&lt;span style=&quot;font-size: 48px&quot;&gt;Karma&lt;/span&gt;&lt;font style=&quot;font-size: 24px&quot;&gt;&lt;br&gt;(1)&lt;/font&gt;&lt;/font&gt;&lt;br&gt;&lt;/b&gt;" style="rounded=1;fillColor=#f08e81;strokeColor=none;strokeWidth=3;shadow=0;html=1;fontColor=#FFFFFF;" parent="TRByGXP3KHhF0FCyBhN1-1" vertex="1">
          <mxGeometry x="900" y="1709.9999999999998" width="310" height="160" as="geometry" />
        </mxCell>
        <mxCell id="jT7_ShN87hqY10pcGhG_-24" value="" style="edgeStyle=none;endArrow=none;strokeWidth=3;strokeColor=#F08E81;html=1;" parent="TRByGXP3KHhF0FCyBhN1-1" source="jT7_ShN87hqY10pcGhG_-2" target="jT7_ShN87hqY10pcGhG_-23" edge="1">
          <mxGeometry x="280" y="485.14" width="100" height="100" as="geometry">
            <mxPoint x="1015.0332083676617" y="1520.0044886935361" as="sourcePoint" />
            <mxPoint x="380" y="485.14" as="targetPoint" />
          </mxGeometry>
        </mxCell>
      </root>
    </mxGraphModel>
  </diagram>
  <diagram id="JM0xPpiRpTlFfSWVCg3E" name="sec1-english">
    <mxGraphModel dx="3400" dy="2380" grid="1" gridSize="10" guides="1" tooltips="1" connect="1" arrows="1" fold="1" page="1" pageScale="1" pageWidth="827" pageHeight="1169" math="0" shadow="0">
      <root>
        <mxCell id="OeQZ24Lj2CPU66stu0Wv-0" />
        <mxCell id="OeQZ24Lj2CPU66stu0Wv-1" parent="OeQZ24Lj2CPU66stu0Wv-0" />
        <mxCell id="ZOiftvgWS48FDHu4Aqru-0" value="&lt;b&gt;&lt;font color=&quot;#000000&quot;&gt;&lt;span style=&quot;font-size: 72px&quot;&gt;Righteousness&lt;/span&gt;&lt;/font&gt;&lt;/b&gt;&lt;b&gt;&lt;font&gt;&lt;font color=&quot;#000000&quot;&gt;&lt;span style=&quot;font-size: 72px&quot;&gt;&lt;br&gt;&lt;/span&gt;&lt;font style=&quot;font-size: 24px&quot;&gt;(38)e&lt;/font&gt;&lt;/font&gt;&lt;br&gt;&lt;/font&gt;&lt;/b&gt;" style="ellipse;whiteSpace=wrap;html=1;shadow=0;fontFamily=Helvetica;fontSize=20;fontColor=#FFFFFF;align=center;strokeWidth=3;fillColor=#E85642;strokeColor=none;" parent="OeQZ24Lj2CPU66stu0Wv-1" vertex="1">
          <mxGeometry x="1050" y="20" width="550" height="410" as="geometry" />
        </mxCell>
        <mxCell id="ZOiftvgWS48FDHu4Aqru-1" value="&lt;font&gt;&lt;b&gt;&lt;font color=&quot;#000000&quot;&gt;&lt;span style=&quot;font-size: 48px&quot;&gt;Introduction&lt;/span&gt;&lt;br&gt;&lt;font style=&quot;font-size: 24px&quot;&gt;(4)&lt;/font&gt;&lt;/font&gt;&lt;br&gt;&lt;/b&gt;&lt;/font&gt;" style="rounded=1;fillColor=#f08e81;strokeColor=none;strokeWidth=3;shadow=0;html=1;fontColor=#FFFFFF;" parent="OeQZ24Lj2CPU66stu0Wv-1" vertex="1">
          <mxGeometry x="180" y="140" width="310" height="200" as="geometry" />
        </mxCell>
        <mxCell id="ZOiftvgWS48FDHu4Aqru-2" value="&lt;font&gt;&lt;b&gt;&lt;font color=&quot;#000000&quot;&gt;&lt;span style=&quot;font-size: 48px&quot;&gt;Domestic Virtue&lt;/span&gt;&lt;font style=&quot;font-size: 24px&quot;&gt;&lt;br&gt;(20)&lt;/font&gt;&lt;/font&gt;&lt;/b&gt;&lt;br&gt;&lt;/font&gt;" style="rounded=1;fillColor=#f08e81;strokeColor=none;strokeWidth=3;shadow=0;html=1;fontColor=#FFFFFF;" parent="OeQZ24Lj2CPU66stu0Wv-1" vertex="1">
          <mxGeometry x="650" y="350" width="410" height="170" as="geometry" />
        </mxCell>
        <mxCell id="ZOiftvgWS48FDHu4Aqru-3" value="&lt;b&gt;&lt;font color=&quot;#000000&quot;&gt;&lt;span style=&quot;font-size: 48px&quot;&gt;Ascetic Virtue&lt;/span&gt;&lt;br&gt;&lt;font style=&quot;font-size: 24px&quot;&gt;(13)&lt;/font&gt;&lt;/font&gt;&lt;br&gt;&lt;/b&gt;" style="rounded=1;fillColor=#f08e81;strokeColor=none;strokeWidth=3;shadow=0;html=1;fontColor=#FFFFFF;" parent="OeQZ24Lj2CPU66stu0Wv-1" vertex="1">
          <mxGeometry x="1560" y="360" width="370" height="150" as="geometry" />
        </mxCell>
        <mxCell id="ZOiftvgWS48FDHu4Aqru-4" value="" style="edgeStyle=none;endArrow=none;strokeWidth=3;strokeColor=#F08E81;html=1;" parent="OeQZ24Lj2CPU66stu0Wv-1" source="ZOiftvgWS48FDHu4Aqru-0" target="ZOiftvgWS48FDHu4Aqru-1" edge="1">
          <mxGeometry x="-80" y="-135" width="100" height="100" as="geometry">
            <mxPoint x="-80" y="-35" as="sourcePoint" />
            <mxPoint x="20" y="-135" as="targetPoint" />
          </mxGeometry>
        </mxCell>
        <mxCell id="ZOiftvgWS48FDHu4Aqru-5" value="" style="edgeStyle=none;endArrow=none;strokeWidth=3;strokeColor=#F08E81;html=1;" parent="OeQZ24Lj2CPU66stu0Wv-1" source="ZOiftvgWS48FDHu4Aqru-0" target="ZOiftvgWS48FDHu4Aqru-2" edge="1">
          <mxGeometry x="-80" y="-135" width="100" height="100" as="geometry">
            <mxPoint x="-80" y="-35" as="sourcePoint" />
            <mxPoint x="20" y="-135" as="targetPoint" />
          </mxGeometry>
        </mxCell>
        <mxCell id="ZOiftvgWS48FDHu4Aqru-6" value="" style="edgeStyle=none;endArrow=none;strokeWidth=3;strokeColor=#F08E81;html=1;" parent="OeQZ24Lj2CPU66stu0Wv-1" source="ZOiftvgWS48FDHu4Aqru-0" target="ZOiftvgWS48FDHu4Aqru-3" edge="1">
          <mxGeometry x="-80" y="-135" width="100" height="100" as="geometry">
            <mxPoint x="-80" y="-35" as="sourcePoint" />
            <mxPoint x="20" y="-135" as="targetPoint" />
          </mxGeometry>
        </mxCell>
        <mxCell id="ZOiftvgWS48FDHu4Aqru-7" value="&lt;b&gt;&lt;font color=&quot;#000000&quot;&gt;&lt;span style=&quot;font-size: 48px&quot;&gt;Karma&lt;/span&gt;&lt;font style=&quot;font-size: 24px&quot;&gt;&lt;br&gt;(1)&lt;/font&gt;&lt;/font&gt;&lt;br&gt;&lt;/b&gt;" style="rounded=1;fillColor=#f08e81;strokeColor=none;strokeWidth=3;shadow=0;html=1;fontColor=#FFFFFF;" parent="OeQZ24Lj2CPU66stu0Wv-1" vertex="1">
          <mxGeometry x="2020" y="149.99999999999977" width="310" height="160" as="geometry" />
        </mxCell>
        <mxCell id="ZOiftvgWS48FDHu4Aqru-8" value="" style="edgeStyle=none;endArrow=none;strokeWidth=3;strokeColor=#F08E81;html=1;" parent="OeQZ24Lj2CPU66stu0Wv-1" source="ZOiftvgWS48FDHu4Aqru-0" target="ZOiftvgWS48FDHu4Aqru-7" edge="1">
          <mxGeometry x="110" y="95.13999999999999" width="100" height="100" as="geometry">
            <mxPoint x="845.0332083676617" y="1130.0044886935361" as="sourcePoint" />
            <mxPoint x="210" y="95.13999999999999" as="targetPoint" />
          </mxGeometry>
        </mxCell>
        <mxCell id="ZOiftvgWS48FDHu4Aqru-9" value="&lt;ol style=&quot;font-size: 30px&quot;&gt;&lt;ol&gt;&lt;li&gt;&lt;b style=&quot;font-family: &amp;#34;helvetica&amp;#34;&quot;&gt;Married Life&lt;/b&gt;&lt;/li&gt;&lt;li&gt;&lt;b style=&quot;font-family: &amp;#34;helvetica&amp;#34;&quot;&gt;Worth of spouse&lt;/b&gt;&lt;/li&gt;&lt;li&gt;&lt;b style=&quot;font-family: &amp;#34;helvetica&amp;#34;&quot;&gt;Wealth of kids&lt;/b&gt;&lt;/li&gt;&lt;li&gt;&lt;b style=&quot;font-family: &amp;#34;helvetica&amp;#34;&quot;&gt;Kindness&lt;/b&gt;&lt;/li&gt;&lt;li&gt;&lt;b style=&quot;font-family: &amp;#34;helvetica&amp;#34;&quot;&gt;Hospitality&lt;/b&gt;&lt;/li&gt;&lt;li&gt;&lt;b style=&quot;font-family: &amp;#34;helvetica&amp;#34;&quot;&gt;Pleasant words&lt;/b&gt;&lt;/li&gt;&lt;li&gt;&lt;b style=&quot;font-family: &amp;#34;helvetica&amp;#34;&quot;&gt;Gratitude&amp;nbsp;&lt;/b&gt;&lt;/li&gt;&lt;li&gt;&lt;b style=&quot;font-family: &amp;#34;helvetica&amp;#34;&quot;&gt;Being Neutral&lt;/b&gt;&lt;/li&gt;&lt;li&gt;&lt;b style=&quot;font-family: &amp;#34;helvetica&amp;#34;&quot;&gt;Self Control&lt;/b&gt;&lt;/li&gt;&lt;li&gt;&lt;b style=&quot;font-family: &amp;#34;helvetica&amp;#34;&quot;&gt;Good Decorum&lt;/b&gt;&lt;/li&gt;&lt;/ol&gt;&lt;/ol&gt;" style="rounded=1;fillColor=#f8cecc;strokeColor=#b85450;strokeWidth=3;shadow=0;html=1;align=left;" parent="OeQZ24Lj2CPU66stu0Wv-1" vertex="1">
          <mxGeometry x="430" y="650" width="380" height="440" as="geometry" />
        </mxCell>
        <mxCell id="ZOiftvgWS48FDHu4Aqru-10" value="&lt;font face=&quot;helvetica&quot;&gt;&lt;span style=&quot;font-size: 30px&quot;&gt;&lt;b&gt;11. &amp;nbsp; Coveting spouses&lt;br&gt;12. &amp;nbsp; Forgiveness&lt;br&gt;13. &amp;nbsp; Envy &amp;nbsp;&amp;nbsp;&lt;br&gt;14 &amp;nbsp; &amp;nbsp;Greedy&lt;br&gt;15. &amp;nbsp; Slander&lt;br&gt;16. &amp;nbsp; Vain speaking&lt;br&gt;17. &amp;nbsp; Fear of sin&lt;br&gt;18. &amp;nbsp; Duty of Society&lt;br&gt;19. &amp;nbsp; Charity&lt;br&gt;20. &amp;nbsp; Emience&lt;br&gt;&lt;/b&gt;&lt;/span&gt;&lt;/font&gt;" style="rounded=1;fillColor=#f8cecc;strokeColor=#b85450;strokeWidth=3;shadow=0;html=1;align=left;" parent="OeQZ24Lj2CPU66stu0Wv-1" vertex="1">
          <mxGeometry x="960" y="670" width="360" height="440" as="geometry" />
        </mxCell>
        <mxCell id="ZOiftvgWS48FDHu4Aqru-11" value="&lt;blockquote style=&quot;margin: 0px 0px 0px 40px ; border: none ; padding: 0px ; font-size: 30px&quot;&gt;&lt;ol&gt;&lt;li&gt;&lt;font face=&quot;helvetica&quot;&gt;&lt;b&gt;Compassion&lt;/b&gt;&lt;/font&gt;&lt;/li&gt;&lt;li&gt;&lt;font face=&quot;helvetica&quot;&gt;&lt;b&gt;Vegitarian&amp;nbsp;&lt;/b&gt;&lt;/font&gt;&lt;/li&gt;&lt;li&gt;&lt;font face=&quot;helvetica&quot;&gt;&lt;b&gt;Penance&lt;/b&gt;&lt;/font&gt;&lt;/li&gt;&lt;li&gt;&lt;font face=&quot;helvetica&quot;&gt;&lt;b&gt;Imposture&lt;/b&gt;&lt;/font&gt;&lt;/li&gt;&lt;li&gt;&lt;font face=&quot;helvetica&quot;&gt;&lt;b&gt;Fraud&lt;/b&gt;&lt;/font&gt;&lt;/li&gt;&lt;li&gt;&lt;b style=&quot;font-family: &amp;#34;helvetica&amp;#34;&quot;&gt;Veracity&lt;/b&gt;&lt;/li&gt;&lt;li&gt;&lt;b style=&quot;font-family: &amp;#34;helvetica&amp;#34;&quot;&gt;Anger&lt;/b&gt;&lt;br&gt;&lt;/li&gt;&lt;/ol&gt;&lt;/blockquote&gt;" style="rounded=1;fillColor=#f8cecc;strokeColor=#b85450;strokeWidth=3;shadow=0;html=1;align=left;" parent="OeQZ24Lj2CPU66stu0Wv-1" vertex="1">
          <mxGeometry x="1380" y="670" width="330" height="440" as="geometry" />
        </mxCell>
        <mxCell id="ZOiftvgWS48FDHu4Aqru-12" value="&lt;font face=&quot;helvetica&quot;&gt;&lt;span style=&quot;font-size: 30px&quot;&gt;&lt;b&gt;&amp;nbsp;8. &amp;nbsp;&amp;nbsp;&lt;/b&gt;&lt;/span&gt;&lt;/font&gt;&lt;b style=&quot;font-family: &amp;#34;helvetica&amp;#34; ; font-size: 30px&quot;&gt;Non Violence&lt;/b&gt;&lt;font face=&quot;helvetica&quot;&gt;&lt;span style=&quot;font-size: 30px&quot;&gt;&lt;b&gt;&lt;br&gt;&lt;/b&gt;&lt;/span&gt;&lt;/font&gt;&lt;font face=&quot;helvetica&quot;&gt;&lt;b&gt;&lt;span style=&quot;font-size: 30px&quot;&gt;&amp;nbsp;9. &amp;nbsp; Non Killing&lt;/span&gt;&lt;br&gt;&lt;span style=&quot;font-size: 30px&quot;&gt;10. &amp;nbsp;Instability&lt;/span&gt;&lt;br&gt;&lt;span style=&quot;font-size: 30px&quot;&gt;11. &amp;nbsp;Renunciation&lt;/span&gt;&lt;br&gt;&lt;span style=&quot;font-size: 30px&quot;&gt;12. &amp;nbsp;Consciousness&lt;/span&gt;&lt;br&gt;&lt;span style=&quot;font-size: 30px&quot;&gt;13. &amp;nbsp;Desire&lt;/span&gt;&lt;br&gt;&lt;/b&gt;&lt;/font&gt;" style="rounded=1;fillColor=#f8cecc;strokeColor=#b85450;strokeWidth=3;shadow=0;html=1;align=left;" parent="OeQZ24Lj2CPU66stu0Wv-1" vertex="1">
          <mxGeometry x="1850" y="680" width="320" height="440" as="geometry" />
        </mxCell>
        <mxCell id="ZOiftvgWS48FDHu4Aqru-13" value="&lt;ol style=&quot;font-size: 30px&quot;&gt;&lt;ol&gt;&lt;li&gt;&lt;font face=&quot;helvetica&quot;&gt;&lt;b&gt;Praise God&lt;/b&gt;&lt;/font&gt;&lt;/li&gt;&lt;li&gt;&lt;font face=&quot;helvetica&quot;&gt;&lt;b&gt;Blessing of Rain&lt;/b&gt;&lt;/font&gt;&lt;/li&gt;&lt;li&gt;&lt;font face=&quot;helvetica&quot;&gt;&lt;b&gt;Merit of Ascetics&lt;/b&gt;&lt;/font&gt;&lt;/li&gt;&lt;li&gt;&lt;font face=&quot;helvetica&quot;&gt;&lt;b&gt;Power of virtue&lt;/b&gt;&lt;/font&gt;&lt;/li&gt;&lt;/ol&gt;&lt;/ol&gt;&lt;b style=&quot;font-family: &amp;#34;helvetica&amp;#34;&quot;&gt;&lt;font style=&quot;font-size: 36px&quot;&gt;&lt;br&gt;&lt;/font&gt;&lt;/b&gt;" style="rounded=1;fillColor=#f8cecc;strokeColor=#b85450;strokeWidth=3;shadow=0;html=1;align=left;" parent="OeQZ24Lj2CPU66stu0Wv-1" vertex="1">
          <mxGeometry x="70" y="380" width="355" height="280" as="geometry" />
        </mxCell>
        <mxCell id="ZOiftvgWS48FDHu4Aqru-14" value="" style="endArrow=none;html=1;exitX=0.5;exitY=0;exitDx=0;exitDy=0;entryX=0.5;entryY=1;entryDx=0;entryDy=0;strokeColor=#F19C99;strokeWidth=4;" parent="OeQZ24Lj2CPU66stu0Wv-1" source="ZOiftvgWS48FDHu4Aqru-9" target="ZOiftvgWS48FDHu4Aqru-2" edge="1">
          <mxGeometry width="50" height="50" relative="1" as="geometry">
            <mxPoint x="950" y="580" as="sourcePoint" />
            <mxPoint x="1000" y="530" as="targetPoint" />
          </mxGeometry>
        </mxCell>
        <mxCell id="ZOiftvgWS48FDHu4Aqru-15" value="" style="endArrow=none;html=1;entryX=0.5;entryY=1;entryDx=0;entryDy=0;exitX=0.5;exitY=0;exitDx=0;exitDy=0;strokeColor=#F19C99;strokeWidth=4;" parent="OeQZ24Lj2CPU66stu0Wv-1" source="ZOiftvgWS48FDHu4Aqru-10" target="ZOiftvgWS48FDHu4Aqru-2" edge="1">
          <mxGeometry width="50" height="50" relative="1" as="geometry">
            <mxPoint x="1060" y="600" as="sourcePoint" />
            <mxPoint x="1000" y="530" as="targetPoint" />
          </mxGeometry>
        </mxCell>
        <mxCell id="ZOiftvgWS48FDHu4Aqru-16" value="" style="endArrow=none;html=1;strokeColor=#F19C99;strokeWidth=4;entryX=0.5;entryY=1;entryDx=0;entryDy=0;exitX=0.5;exitY=0;exitDx=0;exitDy=0;" parent="OeQZ24Lj2CPU66stu0Wv-1" source="ZOiftvgWS48FDHu4Aqru-12" target="ZOiftvgWS48FDHu4Aqru-3" edge="1">
          <mxGeometry width="50" height="50" relative="1" as="geometry">
            <mxPoint x="1870" y="600" as="sourcePoint" />
            <mxPoint x="1640" y="540" as="targetPoint" />
          </mxGeometry>
        </mxCell>
        <mxCell id="ZOiftvgWS48FDHu4Aqru-17" value="" style="endArrow=none;html=1;exitX=0.5;exitY=0;exitDx=0;exitDy=0;entryX=0.5;entryY=1;entryDx=0;entryDy=0;strokeColor=#F19C99;strokeWidth=4;" parent="OeQZ24Lj2CPU66stu0Wv-1" source="ZOiftvgWS48FDHu4Aqru-11" target="ZOiftvgWS48FDHu4Aqru-3" edge="1">
          <mxGeometry width="50" height="50" relative="1" as="geometry">
            <mxPoint x="950" y="580" as="sourcePoint" />
            <mxPoint x="1000" y="530" as="targetPoint" />
          </mxGeometry>
        </mxCell>
        <mxCell id="ZOiftvgWS48FDHu4Aqru-18" value="" style="endArrow=none;html=1;exitX=0.438;exitY=0;exitDx=0;exitDy=0;exitPerimeter=0;strokeColor=#F19C99;strokeWidth=4;" parent="OeQZ24Lj2CPU66stu0Wv-1" source="ZOiftvgWS48FDHu4Aqru-20" edge="1">
          <mxGeometry width="50" height="50" relative="1" as="geometry">
            <mxPoint x="2130" y="350" as="sourcePoint" />
            <mxPoint x="2180" y="300" as="targetPoint" />
          </mxGeometry>
        </mxCell>
        <mxCell id="ZOiftvgWS48FDHu4Aqru-19" value="" style="endArrow=none;html=1;entryX=0.5;entryY=1;entryDx=0;entryDy=0;exitX=0.5;exitY=0;exitDx=0;exitDy=0;strokeColor=#F19C99;strokeWidth=4;" parent="OeQZ24Lj2CPU66stu0Wv-1" source="ZOiftvgWS48FDHu4Aqru-13" target="ZOiftvgWS48FDHu4Aqru-1" edge="1">
          <mxGeometry width="50" height="50" relative="1" as="geometry">
            <mxPoint x="140" y="860" as="sourcePoint" />
            <mxPoint x="190" y="810" as="targetPoint" />
          </mxGeometry>
        </mxCell>
        <mxCell id="ZOiftvgWS48FDHu4Aqru-20" value="&lt;ol style=&quot;font-size: 30px&quot;&gt;&lt;ol&gt;&lt;li&gt;&lt;font face=&quot;helvetica&quot;&gt;&lt;b&gt;Destiny&lt;/b&gt;&lt;/font&gt;&lt;/li&gt;&lt;/ol&gt;&lt;/ol&gt;" style="rounded=1;fillColor=#f8cecc;strokeColor=#b85450;strokeWidth=3;shadow=0;html=1;align=left;" parent="OeQZ24Lj2CPU66stu0Wv-1" vertex="1">
          <mxGeometry x="2080" y="360" width="320" height="210" as="geometry" />
        </mxCell>
      </root>
    </mxGraphModel>
  </diagram>
  <diagram id="AqzibRx7tV7_eRHtfyGN" name="sec2-english">
    <mxGraphModel dx="873" dy="1190" grid="1" gridSize="10" guides="1" tooltips="1" connect="1" arrows="1" fold="1" page="1" pageScale="1" pageWidth="827" pageHeight="1169" math="0" shadow="0">
      <root>
        <mxCell id="0gYFmDBqGyRFnEuIQteM-0" />
        <mxCell id="0gYFmDBqGyRFnEuIQteM-1" parent="0gYFmDBqGyRFnEuIQteM-0" />
        <mxCell id="0gYFmDBqGyRFnEuIQteM-2" value="&lt;font&gt;&lt;b&gt;&lt;font color=&quot;#000000&quot;&gt;&lt;span style=&quot;font-size: 72px&quot;&gt;Material World&lt;/span&gt;&lt;br&gt;&lt;font style=&quot;font-size: 24px&quot;&gt;(70)&lt;/font&gt;&lt;/font&gt;&lt;br&gt;&lt;/b&gt;&lt;/font&gt;" style="ellipse;whiteSpace=wrap;html=1;shadow=0;fontFamily=Helvetica;fontSize=20;fontColor=#FFFFFF;align=center;strokeWidth=3;fillColor=#F08705;strokeColor=none;" parent="0gYFmDBqGyRFnEuIQteM-1" vertex="1">
          <mxGeometry x="1460" y="50" width="492.5" height="320" as="geometry" />
        </mxCell>
        <mxCell id="0gYFmDBqGyRFnEuIQteM-3" value="&lt;b&gt;&lt;font color=&quot;#000000&quot;&gt;&lt;span style=&quot;font-size: 48px&quot;&gt;Public Affairs&lt;/span&gt;&lt;br&gt;&lt;font style=&quot;font-size: 24px&quot;&gt;(32)&lt;/font&gt;&lt;/font&gt;&lt;br&gt;&lt;/b&gt;" style="rounded=1;fillColor=#f5af58;strokeColor=none;strokeWidth=3;shadow=0;html=1;fontColor=#FFFFFF;" parent="0gYFmDBqGyRFnEuIQteM-1" vertex="1">
          <mxGeometry x="1540" y="400" width="331" height="180" as="geometry" />
        </mxCell>
        <mxCell id="0gYFmDBqGyRFnEuIQteM-4" value="&lt;font&gt;&lt;b&gt;&lt;font color=&quot;#000000&quot;&gt;&lt;span style=&quot;font-size: 48px&quot;&gt;Royalty&lt;/span&gt;&lt;br&gt;&lt;font style=&quot;font-size: 24px&quot;&gt;(25)&lt;/font&gt;&lt;/font&gt;&lt;br&gt;&lt;/b&gt;&lt;/font&gt;" style="rounded=1;fillColor=#f5af58;strokeColor=none;strokeWidth=3;shadow=0;html=1;fontColor=#FFFFFF;" parent="0gYFmDBqGyRFnEuIQteM-1" vertex="1">
          <mxGeometry x="1010" y="123.13" width="240" height="173.75" as="geometry" />
        </mxCell>
        <mxCell id="0gYFmDBqGyRFnEuIQteM-5" value="" style="edgeStyle=none;endArrow=none;strokeWidth=3;strokeColor=#F5AF58;html=1;" parent="0gYFmDBqGyRFnEuIQteM-1" source="0gYFmDBqGyRFnEuIQteM-2" target="0gYFmDBqGyRFnEuIQteM-3" edge="1">
          <mxGeometry x="140" y="-102" width="100" height="100" as="geometry">
            <mxPoint x="140" y="-2" as="sourcePoint" />
            <mxPoint x="240" y="-102" as="targetPoint" />
          </mxGeometry>
        </mxCell>
        <mxCell id="0gYFmDBqGyRFnEuIQteM-6" value="" style="edgeStyle=none;endArrow=none;strokeWidth=3;strokeColor=#F5AF58;html=1;" parent="0gYFmDBqGyRFnEuIQteM-1" source="0gYFmDBqGyRFnEuIQteM-2" target="0gYFmDBqGyRFnEuIQteM-4" edge="1">
          <mxGeometry x="140" y="-102" width="100" height="100" as="geometry">
            <mxPoint x="140" y="-2" as="sourcePoint" />
            <mxPoint x="240" y="-102" as="targetPoint" />
          </mxGeometry>
        </mxCell>
        <mxCell id="0gYFmDBqGyRFnEuIQteM-7" value="&lt;b&gt;&lt;font color=&quot;#000000&quot;&gt;&lt;span style=&quot;font-size: 48px&quot;&gt;Social Life&lt;/span&gt;&lt;br&gt;&lt;font style=&quot;font-size: 24px&quot;&gt;(13)&lt;/font&gt;&lt;/font&gt;&lt;br&gt;&lt;/b&gt;" style="rounded=1;fillColor=#f5af58;strokeColor=none;strokeWidth=3;shadow=0;html=1;fontColor=#FFFFFF;" parent="0gYFmDBqGyRFnEuIQteM-1" vertex="1">
          <mxGeometry x="2150" y="130" width="271" height="160" as="geometry" />
        </mxCell>
        <mxCell id="0gYFmDBqGyRFnEuIQteM-8" value="" style="edgeStyle=none;endArrow=none;strokeWidth=3;strokeColor=#F5AF58;html=1;exitX=1;exitY=0.5;exitDx=0;exitDy=0;" parent="0gYFmDBqGyRFnEuIQteM-1" source="0gYFmDBqGyRFnEuIQteM-2" target="0gYFmDBqGyRFnEuIQteM-7" edge="1">
          <mxGeometry x="439" y="-92" width="100" height="100" as="geometry">
            <mxPoint x="1840" y="780" as="sourcePoint" />
            <mxPoint x="539" y="-92" as="targetPoint" />
          </mxGeometry>
        </mxCell>
        <mxCell id="0gYFmDBqGyRFnEuIQteM-9" value="&lt;b style=&quot;font-family: &amp;#34;helvetica&amp;#34;&quot;&gt;&lt;font style=&quot;font-size: 24px&quot;&gt;&amp;nbsp;9. &amp;nbsp; Judge the audience&lt;/font&gt;&lt;/b&gt;&lt;b style=&quot;font-family: &amp;#34;helvetica&amp;#34;&quot;&gt;&lt;br&gt;&lt;/b&gt;&lt;b style=&quot;font-family: &amp;#34;helvetica&amp;#34;&quot;&gt;&lt;font style=&quot;font-size: 24px&quot;&gt;10. &amp;nbsp;Council courage&lt;/font&gt;&lt;/b&gt;&lt;b style=&quot;font-family: &amp;#34;helvetica&amp;#34;&quot;&gt;&lt;br&gt;&lt;/b&gt;&lt;b style=&quot;font-family: &amp;#34;helvetica&amp;#34;&quot;&gt;&lt;font style=&quot;font-size: 24px&quot;&gt;11. &amp;nbsp;Country&lt;/font&gt;&lt;/b&gt;&lt;b style=&quot;font-family: &amp;#34;helvetica&amp;#34;&quot;&gt;&lt;br&gt;&lt;/b&gt;&lt;b style=&quot;font-family: &amp;#34;helvetica&amp;#34;&quot;&gt;&lt;font style=&quot;font-size: 24px&quot;&gt;12. &amp;nbsp;Fortress&lt;/font&gt;&lt;/b&gt;&lt;b style=&quot;font-family: &amp;#34;helvetica&amp;#34;&quot;&gt;&lt;br&gt;&lt;/b&gt;&lt;b style=&quot;font-family: &amp;#34;helvetica&amp;#34;&quot;&gt;&lt;font style=&quot;font-size: 24px&quot;&gt;13. &amp;nbsp;Wealth&lt;br&gt;&lt;/font&gt;&lt;/b&gt;&lt;b style=&quot;font-family: &amp;#34;helvetica&amp;#34;&quot;&gt;&lt;font style=&quot;font-size: 24px&quot;&gt;14. &amp;nbsp;Army&lt;br&gt;&lt;/font&gt;&lt;/b&gt;&lt;b style=&quot;font-family: &amp;#34;helvetica&amp;#34;&quot;&gt;&lt;font style=&quot;font-size: 24px&quot;&gt;15. &amp;nbsp;&lt;/font&gt;&lt;/b&gt;&lt;b style=&quot;font-family: &amp;#34;helvetica&amp;#34;&quot;&gt;&lt;font style=&quot;font-size: 24px&quot;&gt;Military Pride&lt;/font&gt;&lt;/b&gt;&lt;b style=&quot;font-family: &amp;#34;helvetica&amp;#34;&quot;&gt;&lt;br&gt;&lt;div&gt;&lt;b&gt;&lt;font style=&quot;font-size: 24px&quot;&gt;16. &amp;nbsp;Friendship&lt;/font&gt;&lt;/b&gt;&lt;/div&gt;&lt;/b&gt;" style="rounded=1;fillColor=#fff2cc;strokeColor=#d6b656;strokeWidth=3;shadow=0;html=1;align=left;" parent="0gYFmDBqGyRFnEuIQteM-1" vertex="1">
          <mxGeometry x="1540" y="740" width="271" height="370" as="geometry" />
        </mxCell>
        <mxCell id="0gYFmDBqGyRFnEuIQteM-10" value="&lt;b style=&quot;font-family: &amp;#34;helvetica&amp;#34;&quot;&gt;&lt;font style=&quot;font-size: 24px&quot;&gt;17. &amp;nbsp;Friendship evaluation&lt;/font&gt;&lt;/b&gt;&lt;b style=&quot;font-family: &amp;#34;helvetica&amp;#34;&quot;&gt;&lt;br&gt;&lt;/b&gt;&lt;b style=&quot;font-family: &amp;#34;helvetica&amp;#34;&quot;&gt;&lt;font style=&quot;font-size: 24px&quot;&gt;18. &amp;nbsp;Intimacy&lt;/font&gt;&lt;/b&gt;&lt;b style=&quot;font-family: &amp;#34;helvetica&amp;#34;&quot;&gt;&lt;br&gt;&lt;/b&gt;&lt;b style=&quot;font-family: &amp;#34;helvetica&amp;#34;&quot;&gt;&lt;font style=&quot;font-size: 24px&quot;&gt;19. &amp;nbsp;Bad friendship&lt;/font&gt;&lt;/b&gt;&lt;b style=&quot;font-family: &amp;#34;helvetica&amp;#34;&quot;&gt;&lt;br&gt;&lt;/b&gt;&lt;b style=&quot;font-family: &amp;#34;helvetica&amp;#34;&quot;&gt;&lt;font style=&quot;font-size: 24px&quot;&gt;20. &amp;nbsp;Friendship avoidance&lt;/font&gt;&lt;/b&gt;&lt;b style=&quot;font-family: &amp;#34;helvetica&amp;#34;&quot;&gt;&lt;br&gt;&lt;/b&gt;&lt;b style=&quot;font-family: &amp;#34;helvetica&amp;#34;&quot;&gt;&lt;font style=&quot;font-size: 24px&quot;&gt;21. &amp;nbsp;Folly&lt;br&gt;&lt;/font&gt;&lt;/b&gt;&lt;b style=&quot;font-family: &amp;#34;helvetica&amp;#34;&quot;&gt;&lt;font style=&quot;font-size: 24px&quot;&gt;22. &amp;nbsp;Petty Conceit&lt;br&gt;&lt;/font&gt;&lt;/b&gt;&lt;b style=&quot;font-family: &amp;#34;helvetica&amp;#34;&quot;&gt;&lt;font style=&quot;font-size: 24px&quot;&gt;23. &amp;nbsp;Hatred&lt;/font&gt;&lt;/b&gt;&lt;b style=&quot;font-family: &amp;#34;helvetica&amp;#34;&quot;&gt;&lt;br&gt;&lt;div&gt;&lt;b&gt;&lt;font style=&quot;font-size: 24px&quot;&gt;24. &amp;nbsp;Noble Hostility&lt;/font&gt;&lt;/b&gt;&lt;/div&gt;&lt;/b&gt;" style="rounded=1;fillColor=#fff2cc;strokeColor=#d6b656;strokeWidth=3;shadow=0;html=1;align=left;" parent="0gYFmDBqGyRFnEuIQteM-1" vertex="1">
          <mxGeometry x="1830" y="740" width="300" height="370" as="geometry" />
        </mxCell>
        <mxCell id="0gYFmDBqGyRFnEuIQteM-11" value="&lt;b&gt;&lt;font&gt;&lt;font face=&quot;helvetica&quot; size=&quot;5&quot;&gt;1. Monarchy&lt;/font&gt;&lt;br&gt;&lt;font face=&quot;helvetica&quot; size=&quot;5&quot;&gt;2. Education&lt;/font&gt;&lt;br&gt;&lt;font face=&quot;helvetica&quot; size=&quot;5&quot;&gt;3. Non-learning&lt;/font&gt;&lt;br&gt;&lt;font face=&quot;helvetica&quot; size=&quot;5&quot;&gt;4. Listenting&lt;/font&gt;&lt;br&gt;&lt;font face=&quot;helvetica&quot; size=&quot;5&quot;&gt;5. Wisdom&lt;/font&gt;&lt;br&gt;&lt;font face=&quot;helvetica&quot; size=&quot;5&quot;&gt;6. Faults&lt;/font&gt;&lt;br&gt;&lt;font face=&quot;helvetica&quot; size=&quot;5&quot;&gt;7. Mentorship&lt;/font&gt;&lt;br&gt;&lt;font face=&quot;helvetica&quot; size=&quot;5&quot;&gt;8. Bad company&lt;/font&gt;&lt;br&gt;&lt;font face=&quot;helvetica&quot; size=&quot;5&quot;&gt;9. Deliberate actions&lt;/font&gt;&lt;br&gt;&lt;font face=&quot;helvetica&quot; size=&quot;5&quot;&gt;10. Judging strength&lt;/font&gt;&lt;br&gt;&lt;font face=&quot;helvetica&quot; size=&quot;5&quot;&gt;11. Timing&lt;/font&gt;&lt;br&gt;&lt;font face=&quot;helvetica&quot; size=&quot;5&quot;&gt;12. Placement&lt;/font&gt;&lt;br&gt;&lt;font face=&quot;helvetica&quot; size=&quot;5&quot;&gt;13. Confidence&lt;/font&gt;&lt;br&gt;&lt;font face=&quot;helvetica&quot; size=&quot;5&quot;&gt;14. Entrusting&lt;/font&gt;&lt;br&gt;&lt;font face=&quot;helvetica&quot; size=&quot;5&quot;&gt;15. Cherishing Kinsman&amp;nbsp;&lt;/font&gt;&lt;br&gt;&lt;font face=&quot;helvetica&quot; size=&quot;5&quot;&gt;16. Forgetfulness&amp;nbsp;&lt;/font&gt;&lt;br&gt;&lt;font face=&quot;helvetica&quot; size=&quot;5&quot;&gt;17. Good Governance&amp;nbsp;&lt;/font&gt;&lt;br&gt;&lt;font face=&quot;helvetica&quot; size=&quot;5&quot;&gt;18. Cruel Tyranny&lt;/font&gt;&lt;br&gt;&lt;font face=&quot;helvetica&quot; size=&quot;5&quot;&gt;19. Terrorism&amp;nbsp;&lt;/font&gt;&lt;br&gt;&lt;font face=&quot;helvetica&quot; size=&quot;5&quot;&gt;20. Benign Looks&lt;/font&gt;&lt;br&gt;&lt;/font&gt;&lt;/b&gt;" style="rounded=1;fillColor=#fff2cc;strokeColor=#d6b656;strokeWidth=3;shadow=0;html=1;align=left;" parent="0gYFmDBqGyRFnEuIQteM-1" vertex="1">
          <mxGeometry x="870" y="380" width="291" height="630" as="geometry" />
        </mxCell>
        <mxCell id="0gYFmDBqGyRFnEuIQteM-12" value="&lt;b&gt;&lt;font&gt;&lt;font face=&quot;helvetica&quot; size=&quot;5&quot;&gt;9. Farming&lt;/font&gt;&lt;br&gt;&lt;font face=&quot;helvetica&quot; size=&quot;5&quot;&gt;10. Poverty&lt;/font&gt;&lt;br&gt;&lt;font face=&quot;helvetica&quot; size=&quot;5&quot;&gt;11. Seeking Alms&lt;/font&gt;&lt;br&gt;&lt;font face=&quot;helvetica&quot; size=&quot;5&quot;&gt;12. Fear of&amp;nbsp;seeking&lt;br&gt;&amp;nbsp; &amp;nbsp; &amp;nbsp; &amp;nbsp; alms&lt;/font&gt;&lt;br&gt;&lt;font face=&quot;helvetica&quot; size=&quot;5&quot;&gt;13. Vileness&amp;nbsp;&lt;/font&gt;&lt;br&gt;&lt;/font&gt;&lt;/b&gt;" style="rounded=1;fillColor=#fff2cc;strokeColor=#d6b656;strokeWidth=3;shadow=0;html=1;align=left;" parent="0gYFmDBqGyRFnEuIQteM-1" vertex="1">
          <mxGeometry x="2220" y="450" width="230" height="220" as="geometry" />
        </mxCell>
        <mxCell id="0gYFmDBqGyRFnEuIQteM-13" value="" style="endArrow=none;html=1;strokeColor=#d6b656;strokeWidth=4;exitX=0.5;exitY=0;exitDx=0;exitDy=0;fillColor=#fff2cc;" parent="0gYFmDBqGyRFnEuIQteM-1" source="0gYFmDBqGyRFnEuIQteM-11" edge="1">
          <mxGeometry width="50" height="50" relative="1" as="geometry">
            <mxPoint x="1580" y="590" as="sourcePoint" />
            <mxPoint x="1140" y="290" as="targetPoint" />
          </mxGeometry>
        </mxCell>
        <mxCell id="0gYFmDBqGyRFnEuIQteM-14" value="" style="endArrow=none;html=1;strokeColor=#F19C99;strokeWidth=4;entryX=0.25;entryY=1;entryDx=0;entryDy=0;exitX=0.5;exitY=0;exitDx=0;exitDy=0;" parent="0gYFmDBqGyRFnEuIQteM-1" source="0gYFmDBqGyRFnEuIQteM-20" target="0gYFmDBqGyRFnEuIQteM-3" edge="1">
          <mxGeometry width="50" height="50" relative="1" as="geometry">
            <mxPoint x="1450" y="630" as="sourcePoint" />
            <mxPoint x="1510" y="580" as="targetPoint" />
          </mxGeometry>
        </mxCell>
        <mxCell id="0gYFmDBqGyRFnEuIQteM-15" value="" style="endArrow=none;html=1;strokeColor=#F19C99;strokeWidth=4;exitX=0.435;exitY=-0.005;exitDx=0;exitDy=0;exitPerimeter=0;entryX=0.5;entryY=1;entryDx=0;entryDy=0;" parent="0gYFmDBqGyRFnEuIQteM-1" source="0gYFmDBqGyRFnEuIQteM-9" target="0gYFmDBqGyRFnEuIQteM-3" edge="1">
          <mxGeometry width="50" height="50" relative="1" as="geometry">
            <mxPoint x="1580" y="590" as="sourcePoint" />
            <mxPoint x="1630" y="540" as="targetPoint" />
          </mxGeometry>
        </mxCell>
        <mxCell id="0gYFmDBqGyRFnEuIQteM-16" value="" style="endArrow=none;html=1;strokeColor=#F19C99;strokeWidth=4;exitX=0.5;exitY=0;exitDx=0;exitDy=0;entryX=0.5;entryY=1;entryDx=0;entryDy=0;" parent="0gYFmDBqGyRFnEuIQteM-1" source="0gYFmDBqGyRFnEuIQteM-10" target="0gYFmDBqGyRFnEuIQteM-3" edge="1">
          <mxGeometry width="50" height="50" relative="1" as="geometry">
            <mxPoint x="1580" y="590" as="sourcePoint" />
            <mxPoint x="1800" y="580" as="targetPoint" />
          </mxGeometry>
        </mxCell>
        <mxCell id="0gYFmDBqGyRFnEuIQteM-17" value="" style="endArrow=none;html=1;strokeColor=#F19C99;strokeWidth=4;entryX=0.25;entryY=1;entryDx=0;entryDy=0;exitX=0.5;exitY=0;exitDx=0;exitDy=0;" parent="0gYFmDBqGyRFnEuIQteM-1" source="0gYFmDBqGyRFnEuIQteM-21" target="0gYFmDBqGyRFnEuIQteM-7" edge="1">
          <mxGeometry width="50" height="50" relative="1" as="geometry">
            <mxPoint x="2090" y="320" as="sourcePoint" />
            <mxPoint x="2140" y="270" as="targetPoint" />
          </mxGeometry>
        </mxCell>
        <mxCell id="0gYFmDBqGyRFnEuIQteM-18" value="&lt;span style=&quot;font-family: &amp;#34;helvetica&amp;#34;&quot;&gt;&lt;b&gt;&lt;font style=&quot;font-size: 24px&quot;&gt;21. Espionage&lt;br&gt;22. Energy&lt;br&gt;23. Freedom&amp;nbsp;&lt;br&gt;24. Effort&lt;br&gt;25. Hope&lt;br&gt;&lt;/font&gt;&lt;/b&gt;&lt;/span&gt;" style="rounded=1;fillColor=#fff2cc;strokeColor=#d6b656;strokeWidth=3;shadow=0;html=1;align=left;" parent="0gYFmDBqGyRFnEuIQteM-1" vertex="1">
          <mxGeometry x="1180" y="450" width="271" height="240" as="geometry" />
        </mxCell>
        <mxCell id="0gYFmDBqGyRFnEuIQteM-19" value="" style="endArrow=none;html=1;strokeColor=#d6b656;strokeWidth=4;exitX=0.5;exitY=0;exitDx=0;exitDy=0;fillColor=#fff2cc;entryX=0.5;entryY=1;entryDx=0;entryDy=0;" parent="0gYFmDBqGyRFnEuIQteM-1" source="0gYFmDBqGyRFnEuIQteM-18" target="0gYFmDBqGyRFnEuIQteM-4" edge="1">
          <mxGeometry width="50" height="50" relative="1" as="geometry">
            <mxPoint x="1045.5" y="380" as="sourcePoint" />
            <mxPoint x="1240" y="290" as="targetPoint" />
          </mxGeometry>
        </mxCell>
        <mxCell id="0gYFmDBqGyRFnEuIQteM-20" value="&lt;blockquote style=&quot;margin: 0 0 0 40px ; border: none ; padding: 0px&quot;&gt;&lt;/blockquote&gt;&lt;b&gt;&lt;span style=&quot;font-family: &amp;#34;helvetica&amp;#34;&quot;&gt;&lt;font style=&quot;font-size: 24px&quot;&gt;1. Ministers&lt;/font&gt;&lt;/span&gt;&lt;span style=&quot;font-family: &amp;#34;helvetica&amp;#34;&quot;&gt;&lt;br&gt;&lt;/span&gt;&lt;span style=&quot;font-family: &amp;#34;helvetica&amp;#34;&quot;&gt;&lt;font style=&quot;font-size: 24px&quot;&gt;2. Power speech&lt;/font&gt;&lt;/span&gt;&lt;span style=&quot;font-family: &amp;#34;helvetica&amp;#34;&quot;&gt;&lt;br&gt;&lt;/span&gt;&lt;span style=&quot;font-family: &amp;#34;helvetica&amp;#34;&quot;&gt;&lt;font style=&quot;font-size: 24px&quot;&gt;3. Pure Actions&lt;/font&gt;&lt;/span&gt;&lt;span style=&quot;font-family: &amp;#34;helvetica&amp;#34;&quot;&gt;&lt;br&gt;&lt;/span&gt;&lt;span style=&quot;font-family: &amp;#34;helvetica&amp;#34;&quot;&gt;&lt;font style=&quot;font-size: 24px&quot;&gt;4. Powerful acts&lt;/font&gt;&lt;/span&gt;&lt;span style=&quot;font-family: &amp;#34;helvetica&amp;#34;&quot;&gt;&lt;br&gt;&lt;/span&gt;&lt;span style=&quot;font-family: &amp;#34;helvetica&amp;#34;&quot;&gt;&lt;font style=&quot;font-size: 24px&quot;&gt;5. Modes of actions&lt;/font&gt;&lt;/span&gt;&lt;span style=&quot;font-family: &amp;#34;helvetica&amp;#34;&quot;&gt;&lt;br&gt;&lt;/span&gt;&lt;span style=&quot;font-family: &amp;#34;helvetica&amp;#34;&quot;&gt;&lt;font style=&quot;font-size: 24px&quot;&gt;6. Embassy&lt;/font&gt;&lt;/span&gt;&lt;span style=&quot;font-family: &amp;#34;helvetica&amp;#34;&quot;&gt;&lt;br&gt;&lt;/span&gt;&lt;span style=&quot;font-family: &amp;#34;helvetica&amp;#34;&quot;&gt;&lt;font style=&quot;font-size: 24px&quot;&gt;7. Political Influence&lt;/font&gt;&lt;/span&gt;&lt;span style=&quot;font-family: &amp;#34;helvetica&amp;#34;&quot;&gt;&lt;br&gt;&lt;/span&gt;&lt;span style=&quot;font-family: &amp;#34;helvetica&amp;#34;&quot;&gt;&lt;font style=&quot;font-size: 24px&quot;&gt;8. Mind&lt;/font&gt;&lt;/span&gt;&lt;/b&gt;&lt;b style=&quot;font-family: &amp;#34;helvetica&amp;#34;&quot;&gt;&lt;br&gt;&lt;/b&gt;&lt;blockquote style=&quot;margin: 0 0 0 40px ; border: none ; padding: 0px&quot;&gt;&lt;/blockquote&gt;&lt;blockquote style=&quot;margin: 0 0 0 40px ; border: none ; padding: 0px&quot;&gt;&lt;/blockquote&gt;&lt;blockquote style=&quot;margin: 0 0 0 40px ; border: none ; padding: 0px&quot;&gt;&lt;/blockquote&gt;&lt;blockquote style=&quot;margin: 0 0 0 40px ; border: none ; padding: 0px&quot;&gt;&lt;/blockquote&gt;&lt;blockquote style=&quot;margin: 0 0 0 40px ; border: none ; padding: 0px&quot;&gt;&lt;/blockquote&gt;&lt;blockquote style=&quot;margin: 0 0 0 40px ; border: none ; padding: 0px&quot;&gt;&lt;/blockquote&gt;" style="rounded=1;fillColor=#fff2cc;strokeColor=#d6b656;strokeWidth=3;shadow=0;html=1;align=left;" parent="0gYFmDBqGyRFnEuIQteM-1" vertex="1">
          <mxGeometry x="1210" y="740" width="310" height="380" as="geometry" />
        </mxCell>
        <mxCell id="0gYFmDBqGyRFnEuIQteM-21" value="&lt;b&gt;&lt;font&gt;&lt;br&gt;&lt;font face=&quot;helvetica&quot; size=&quot;5&quot;&gt;1. Nobility&lt;/font&gt;&lt;br&gt;&lt;font face=&quot;helvetica&quot; size=&quot;5&quot;&gt;2.&amp;nbsp;Honor&lt;/font&gt;&lt;br&gt;&lt;font face=&quot;helvetica&quot; size=&quot;5&quot;&gt;3. Greatness&lt;/font&gt;&lt;br&gt;&lt;font face=&quot;helvetica&quot; size=&quot;5&quot;&gt;4. Sublimity&lt;/font&gt;&lt;br&gt;&lt;font face=&quot;helvetica&quot; size=&quot;5&quot;&gt;5. Courtesy&lt;br&gt;&lt;/font&gt;&lt;font face=&quot;helvetica&quot; size=&quot;5&quot;&gt;6.&amp;nbsp;Futile&amp;nbsp;wealth&lt;/font&gt;&lt;br&gt;&lt;font face=&quot;helvetica&quot; size=&quot;5&quot;&gt;7.&amp;nbsp;Sensitiveness&lt;/font&gt;&lt;br&gt;&lt;font face=&quot;helvetica&quot; size=&quot;5&quot;&gt;8. Family Welfare&lt;/font&gt;&lt;br&gt;&lt;br&gt;&lt;/font&gt;&lt;/b&gt;" style="rounded=1;fillColor=#fff2cc;strokeColor=#d6b656;strokeWidth=3;shadow=0;html=1;align=left;" parent="0gYFmDBqGyRFnEuIQteM-1" vertex="1">
          <mxGeometry x="1932" y="330" width="271" height="290" as="geometry" />
        </mxCell>
        <mxCell id="0gYFmDBqGyRFnEuIQteM-22" value="&lt;b style=&quot;font-family: &amp;#34;helvetica&amp;#34;&quot;&gt;&lt;font style=&quot;font-size: 24px&quot;&gt;25. Know your enemies&lt;/font&gt;&lt;/b&gt;&lt;b style=&quot;font-family: &amp;#34;helvetica&amp;#34;&quot;&gt;&lt;br&gt;&lt;/b&gt;&lt;b style=&quot;font-family: &amp;#34;helvetica&amp;#34;&quot;&gt;&lt;font style=&quot;font-size: 24px&quot;&gt;26. Secrete Foe&lt;br&gt;&lt;/font&gt;&lt;/b&gt;&lt;b style=&quot;font-family: &amp;#34;helvetica&amp;#34;&quot;&gt;&lt;font style=&quot;font-size: 24px&quot;&gt;27. Respect the greats&lt;br&gt;&lt;/font&gt;&lt;/b&gt;&lt;b style=&quot;font-family: &amp;#34;helvetica&amp;#34;&quot;&gt;&lt;font style=&quot;font-size: 24px&quot;&gt;28. &amp;nbsp;Women Leader&lt;/font&gt;&lt;/b&gt;&lt;b style=&quot;font-family: &amp;#34;helvetica&amp;#34;&quot;&gt;&lt;br&gt;&lt;/b&gt;&lt;b style=&quot;font-family: &amp;#34;helvetica&amp;#34;&quot;&gt;&lt;font style=&quot;font-size: 24px&quot;&gt;29. &amp;nbsp;Wanton Women&amp;nbsp;&lt;br&gt;&lt;/font&gt;&lt;/b&gt;&lt;b&gt;&lt;font&gt;&lt;font face=&quot;helvetica&quot; size=&quot;5&quot;&gt;30. &amp;nbsp;Teetotaler&amp;nbsp;&lt;/font&gt;&lt;br&gt;&lt;/font&gt;&lt;/b&gt;&lt;b style=&quot;font-family: &amp;#34;helvetica&amp;#34;&quot;&gt;&lt;font style=&quot;font-size: 24px&quot;&gt;31. &amp;nbsp;Gambling&lt;/font&gt;&lt;/b&gt;&lt;b style=&quot;font-family: &amp;#34;helvetica&amp;#34;&quot;&gt;&lt;br&gt;&lt;div&gt;&lt;b&gt;&lt;font style=&quot;font-size: 24px&quot;&gt;32. &amp;nbsp;Medicine&amp;nbsp;&lt;/font&gt;&lt;/b&gt;&lt;/div&gt;&lt;/b&gt;" style="rounded=1;fillColor=#fff2cc;strokeColor=#d6b656;strokeWidth=3;shadow=0;html=1;align=left;" parent="0gYFmDBqGyRFnEuIQteM-1" vertex="1">
          <mxGeometry x="2160" y="740" width="310" height="370" as="geometry" />
        </mxCell>
        <mxCell id="0gYFmDBqGyRFnEuIQteM-23" value="" style="endArrow=none;html=1;strokeColor=#F19C99;strokeWidth=4;entryX=0.5;entryY=1;entryDx=0;entryDy=0;exitX=0.5;exitY=0;exitDx=0;exitDy=0;" parent="0gYFmDBqGyRFnEuIQteM-1" source="0gYFmDBqGyRFnEuIQteM-12" target="0gYFmDBqGyRFnEuIQteM-7" edge="1">
          <mxGeometry width="50" height="50" relative="1" as="geometry">
            <mxPoint x="2098" y="320" as="sourcePoint" />
            <mxPoint x="2227.75" y="300" as="targetPoint" />
          </mxGeometry>
        </mxCell>
        <mxCell id="0gYFmDBqGyRFnEuIQteM-24" value="" style="endArrow=none;html=1;strokeColor=#F19C99;strokeWidth=4;exitX=0.5;exitY=0;exitDx=0;exitDy=0;entryX=0.75;entryY=1;entryDx=0;entryDy=0;" parent="0gYFmDBqGyRFnEuIQteM-1" source="0gYFmDBqGyRFnEuIQteM-22" target="0gYFmDBqGyRFnEuIQteM-3" edge="1">
          <mxGeometry width="50" height="50" relative="1" as="geometry">
            <mxPoint x="1965.5" y="640" as="sourcePoint" />
            <mxPoint x="1850" y="570" as="targetPoint" />
          </mxGeometry>
        </mxCell>
      </root>
    </mxGraphModel>
  </diagram>
  <diagram id="7oBWqH-8ls5cUKeExuSF" name="sec3-english">
    <mxGraphModel dx="2573" dy="2380" grid="1" gridSize="10" guides="1" tooltips="1" connect="1" arrows="1" fold="1" page="1" pageScale="1" pageWidth="827" pageHeight="1169" math="0" shadow="0">
      <root>
        <mxCell id="go-UzuLq9fDKTxa5A83B-0" />
        <mxCell id="go-UzuLq9fDKTxa5A83B-1" parent="go-UzuLq9fDKTxa5A83B-0" />
        <mxCell id="y7wGgt2f3a8HiYkY6ce3-0" value="&lt;font&gt;&lt;b&gt;&lt;font color=&quot;#000000&quot;&gt;&lt;span style=&quot;font-size: 72px&quot;&gt;Love&lt;/span&gt;&lt;br&gt;&lt;font style=&quot;font-size: 24px&quot;&gt;(25)&lt;/font&gt;&lt;/font&gt;&lt;br&gt;&lt;/b&gt;&lt;/font&gt;" style="ellipse;whiteSpace=wrap;html=1;shadow=0;fontFamily=Helvetica;fontSize=20;fontColor=#FFFFFF;align=center;strokeWidth=3;fillColor=#736ca8;strokeColor=none;" vertex="1" parent="go-UzuLq9fDKTxa5A83B-1">
          <mxGeometry x="1390" y="20" width="460" height="320" as="geometry" />
        </mxCell>
        <mxCell id="y7wGgt2f3a8HiYkY6ce3-1" value="&lt;font&gt;&lt;font color=&quot;#000000&quot;&gt;&lt;b&gt;&lt;span style=&quot;font-size: 48px&quot;&gt;Wedded Love&lt;/span&gt;&lt;font style=&quot;font-size: 24px&quot;&gt;&lt;br&gt;(18)&lt;/font&gt;&lt;/b&gt;&lt;/font&gt;&lt;br&gt;&lt;/font&gt;" style="rounded=1;fillColor=#a29dc5;strokeColor=none;strokeWidth=3;shadow=0;html=1;fontColor=#FFFFFF;" vertex="1" parent="go-UzuLq9fDKTxa5A83B-1">
          <mxGeometry x="1900" y="290" width="400" height="240" as="geometry" />
        </mxCell>
        <mxCell id="y7wGgt2f3a8HiYkY6ce3-2" value="&lt;b&gt;&lt;font color=&quot;#000000&quot;&gt;&lt;font size=&quot;7&quot;&gt;Concealed&amp;nbsp;Love&lt;/font&gt;&lt;br&gt;&lt;font style=&quot;font-size: 24px&quot;&gt;(7)&lt;/font&gt;&lt;/font&gt;&lt;/b&gt;" style="rounded=1;fillColor=#a29dc5;strokeColor=none;strokeWidth=3;shadow=0;html=1;fontColor=#FFFFFF;" vertex="1" parent="go-UzuLq9fDKTxa5A83B-1">
          <mxGeometry x="900" y="280" width="440" height="250" as="geometry" />
        </mxCell>
        <mxCell id="y7wGgt2f3a8HiYkY6ce3-3" value="" style="edgeStyle=none;endArrow=none;strokeWidth=6;strokeColor=#A29DC5;html=1;" edge="1" parent="go-UzuLq9fDKTxa5A83B-1" source="y7wGgt2f3a8HiYkY6ce3-0" target="y7wGgt2f3a8HiYkY6ce3-1">
          <mxGeometry x="91" y="-473.5" width="100" height="100" as="geometry">
            <mxPoint x="91" y="-373.5" as="sourcePoint" />
            <mxPoint x="191" y="-473.5" as="targetPoint" />
          </mxGeometry>
        </mxCell>
        <mxCell id="y7wGgt2f3a8HiYkY6ce3-4" value="" style="edgeStyle=none;endArrow=none;strokeWidth=3;strokeColor=#A29DC5;html=1;" edge="1" parent="go-UzuLq9fDKTxa5A83B-1" source="y7wGgt2f3a8HiYkY6ce3-0" target="y7wGgt2f3a8HiYkY6ce3-2">
          <mxGeometry x="91" y="-473.5" width="100" height="100" as="geometry">
            <mxPoint x="91" y="-373.5" as="sourcePoint" />
            <mxPoint x="191" y="-473.5" as="targetPoint" />
          </mxGeometry>
        </mxCell>
        <mxCell id="y7wGgt2f3a8HiYkY6ce3-5" value="&lt;b style=&quot;text-indent: 0px&quot;&gt;&lt;font&gt;&lt;font&gt;&lt;font face=&quot;helvetica&quot;&gt;&lt;span style=&quot;font-size: 36px&quot;&gt;&amp;nbsp;1. &amp;nbsp;Beauty&#39;s Dart&lt;/span&gt;&lt;/font&gt;&lt;br&gt;&lt;font face=&quot;helvetica&quot;&gt;&lt;span style=&quot;font-size: 36px&quot;&gt;&amp;nbsp;2. &amp;nbsp;Speak the heart&lt;/span&gt;&lt;/font&gt;&lt;br&gt;&lt;font face=&quot;helvetica&quot;&gt;&lt;span style=&quot;font-size: 36px&quot;&gt;&amp;nbsp;3. &amp;nbsp;Embrace Bliss&lt;/span&gt;&lt;/font&gt;&lt;br&gt;&lt;font face=&quot;helvetica&quot;&gt;&lt;span style=&quot;font-size: 36px&quot;&gt;&amp;nbsp;4. &amp;nbsp;Beauty Extolled&lt;/span&gt;&lt;/font&gt;&lt;br&gt;&lt;font face=&quot;helvetica&quot;&gt;&lt;span style=&quot;font-size: 36px&quot;&gt;&amp;nbsp;5. &amp;nbsp;Love&#39;s Excellence&lt;/span&gt;&lt;/font&gt;&lt;br&gt;&lt;font face=&quot;helvetica&quot;&gt;&lt;span style=&quot;font-size: 36px&quot;&gt;&amp;nbsp;6. &amp;nbsp;Decorum Defied&amp;nbsp;&lt;/span&gt;&lt;/font&gt;&lt;br&gt;&lt;font face=&quot;helvetica&quot;&gt;&lt;span style=&quot;font-size: 36px&quot;&gt;&amp;nbsp;7. &amp;nbsp;Public&amp;nbsp;Clamor&lt;/span&gt;&lt;/font&gt;&lt;br&gt;&lt;/font&gt;&lt;br&gt;&lt;br&gt;&lt;/font&gt;&lt;/b&gt;" style="rounded=1;fillColor=#dae8fc;strokeColor=#6c8ebf;strokeWidth=3;shadow=0;html=1;align=left;" vertex="1" parent="go-UzuLq9fDKTxa5A83B-1">
          <mxGeometry x="910" y="620" width="450" height="510" as="geometry" />
        </mxCell>
        <mxCell id="y7wGgt2f3a8HiYkY6ce3-6" value="&lt;b&gt;&lt;font&gt;&lt;font&gt;&lt;font face=&quot;helvetica&quot;&gt;&lt;span style=&quot;font-size: 36px&quot;&gt;&amp;nbsp;10. &amp;nbsp;Soliloquy&lt;/span&gt;&lt;/font&gt;&lt;br&gt;&lt;font face=&quot;helvetica&quot;&gt;&lt;span style=&quot;font-size: 36px&quot;&gt;&amp;nbsp;11. &amp;nbsp; Reserve lost&lt;/span&gt;&lt;/font&gt;&lt;br&gt;&lt;font face=&quot;helvetica&quot;&gt;&lt;span style=&quot;font-size: 36px&quot;&gt;&amp;nbsp;12. &amp;nbsp;Mutual yearning&lt;/span&gt;&lt;/font&gt;&lt;br&gt;&lt;font face=&quot;helvetica&quot;&gt;&lt;span style=&quot;font-size: 36px&quot;&gt;&amp;nbsp;13. &amp;nbsp;Feeling surmised&lt;/span&gt;&lt;/font&gt;&lt;br&gt;&lt;font face=&quot;helvetica&quot;&gt;&lt;span style=&quot;font-size: 36px&quot;&gt;&amp;nbsp;14. &amp;nbsp;Longing for reunion&lt;/span&gt;&lt;/font&gt;&lt;br&gt;&lt;font face=&quot;helvetica&quot;&gt;&lt;span style=&quot;font-size: 36px&quot;&gt;&amp;nbsp;15. &amp;nbsp;Chiding the heart&lt;/span&gt;&lt;/font&gt;&lt;br&gt;&lt;font face=&quot;helvetica&quot;&gt;&lt;span style=&quot;font-size: 36px&quot;&gt;&amp;nbsp;16. &amp;nbsp;Bouderie&lt;/span&gt;&lt;/font&gt;&lt;br&gt;&lt;font face=&quot;helvetica&quot;&gt;&lt;span style=&quot;font-size: 36px&quot;&gt;&amp;nbsp;17. &amp;nbsp;Feigned anger&lt;/span&gt;&lt;/font&gt;&lt;br&gt;&lt;font face=&quot;helvetica&quot;&gt;&lt;span style=&quot;font-size: 36px&quot;&gt;&amp;nbsp;18. &amp;nbsp;Sulking charm&lt;/span&gt;&lt;/font&gt;&lt;/font&gt;&lt;br&gt;&lt;/font&gt;&lt;/b&gt;" style="rounded=1;fillColor=#dae8fc;strokeColor=#6c8ebf;strokeWidth=3;shadow=0;html=1;align=left;" vertex="1" parent="go-UzuLq9fDKTxa5A83B-1">
          <mxGeometry x="1970" y="630" width="450" height="495" as="geometry" />
        </mxCell>
        <mxCell id="y7wGgt2f3a8HiYkY6ce3-7" value="&lt;b style=&quot;font-family: &amp;#34;helvetica&amp;#34;&quot;&gt;&lt;font&gt;&lt;font style=&quot;font-size: 36px&quot;&gt;&amp;nbsp;1. &amp;nbsp;Pangs of separation&lt;br&gt;&amp;nbsp;2. &amp;nbsp;Wailing of pinning love&lt;br&gt;&amp;nbsp;3. &amp;nbsp;Wistful love&lt;br&gt;&amp;nbsp;4. &amp;nbsp;Wailing over pallor&lt;br&gt;&amp;nbsp;5. &amp;nbsp;Pining Alone&lt;br&gt;&amp;nbsp;6. &amp;nbsp;Sad Memories&lt;br&gt;&amp;nbsp;7. &amp;nbsp;Remind dreams&lt;br&gt;&amp;nbsp;8. &amp;nbsp;Eventide sigh&lt;br&gt;&amp;nbsp;9. &amp;nbsp;Body Language&lt;/font&gt;&lt;br&gt;&lt;/font&gt;&lt;/b&gt;" style="rounded=1;fillColor=#dae8fc;strokeColor=#6c8ebf;strokeWidth=3;shadow=0;html=1;align=left;" vertex="1" parent="go-UzuLq9fDKTxa5A83B-1">
          <mxGeometry x="1440" y="630" width="490" height="495" as="geometry" />
        </mxCell>
        <mxCell id="y7wGgt2f3a8HiYkY6ce3-8" value="" style="endArrow=none;html=1;strokeColor=#F19C99;strokeWidth=4;entryX=0.5;entryY=1;entryDx=0;entryDy=0;exitX=0.75;exitY=0;exitDx=0;exitDy=0;" edge="1" parent="go-UzuLq9fDKTxa5A83B-1" source="y7wGgt2f3a8HiYkY6ce3-7" target="y7wGgt2f3a8HiYkY6ce3-1">
          <mxGeometry width="50" height="50" relative="1" as="geometry">
            <mxPoint x="1740" y="680" as="sourcePoint" />
            <mxPoint x="1790" y="630" as="targetPoint" />
          </mxGeometry>
        </mxCell>
        <mxCell id="y7wGgt2f3a8HiYkY6ce3-9" value="" style="endArrow=none;html=1;strokeColor=#F19C99;strokeWidth=4;entryX=0.5;entryY=1;entryDx=0;entryDy=0;exitX=0.536;exitY=0;exitDx=0;exitDy=0;exitPerimeter=0;" edge="1" parent="go-UzuLq9fDKTxa5A83B-1" source="y7wGgt2f3a8HiYkY6ce3-5" target="y7wGgt2f3a8HiYkY6ce3-2">
          <mxGeometry width="50" height="50" relative="1" as="geometry">
            <mxPoint x="1190" y="580" as="sourcePoint" />
            <mxPoint x="1240" y="530" as="targetPoint" />
          </mxGeometry>
        </mxCell>
        <mxCell id="y7wGgt2f3a8HiYkY6ce3-10" value="" style="endArrow=none;html=1;strokeColor=#F19C99;strokeWidth=4;entryX=0.5;entryY=1;entryDx=0;entryDy=0;exitX=0.545;exitY=0;exitDx=0;exitDy=0;exitPerimeter=0;" edge="1" parent="go-UzuLq9fDKTxa5A83B-1" source="y7wGgt2f3a8HiYkY6ce3-6" target="y7wGgt2f3a8HiYkY6ce3-1">
          <mxGeometry width="50" height="50" relative="1" as="geometry">
            <mxPoint x="1740" y="680" as="sourcePoint" />
            <mxPoint x="1790" y="630" as="targetPoint" />
          </mxGeometry>
        </mxCell>
      </root>
    </mxGraphModel>
  </diagram>
</mxfile>
